<svg width="199" height="41" viewBox="0 0 199 41" fill="none" xmlns="http://www.w3.org/2000/svg">
<path d="M51.0789 20.6968C51.0789 18.6168 51.5289 16.7668 52.4289 15.1468C53.3289 13.5068 54.5789 12.2368 56.1789 11.3368C57.7989 10.4168 59.6289 9.95683 61.6689 9.95683C64.1689 9.95683 66.3089 10.6168 68.0889 11.9368C69.8689 13.2568 71.0589 15.0568 71.6589 17.3368H66.0189C65.5989 16.4568 64.9989 15.7868 64.2189 15.3268C63.4589 14.8668 62.5889 14.6368 61.6089 14.6368C60.0289 14.6368 58.7489 15.1868 57.7689 16.2868C56.7889 17.3868 56.2989 18.8568 56.2989 20.6968C56.2989 22.5368 56.7889 24.0068 57.7689 25.1068C58.7489 26.2068 60.0289 26.7568 61.6089 26.7568C62.5889 26.7568 63.4589 26.5268 64.2189 26.0668C64.9989 25.6068 65.5989 24.9368 66.0189 24.0568H71.6589C71.0589 26.3368 69.8689 28.1368 68.0889 29.4568C66.3089 30.7568 64.1689 31.4068 61.6689 31.4068C59.6289 31.4068 57.7989 30.9568 56.1789 30.0568C54.5789 29.1368 53.3289 27.8668 52.4289 26.2468C51.5289 24.6268 51.0789 22.7768 51.0789 20.6968ZM82.4204 31.4968C80.7804 31.4968 79.3004 31.1468 77.9804 30.4468C76.6804 29.7468 75.6504 28.7468 74.8904 27.4468C74.1504 26.1468 73.7804 24.6268 73.7804 22.8868C73.7804 21.1668 74.1604 19.6568 74.9204 18.3568C75.6804 17.0368 76.7204 16.0268 78.0404 15.3268C79.3604 14.6268 80.8404 14.2768 82.4804 14.2768C84.1204 14.2768 85.6004 14.6268 86.9204 15.3268C88.2404 16.0268 89.2804 17.0368 90.0404 18.3568C90.8004 19.6568 91.1804 21.1668 91.1804 22.8868C91.1804 24.6068 90.7904 26.1268 90.0104 27.4468C89.2504 28.7468 88.2004 29.7468 86.8604 30.4468C85.5404 31.1468 84.0604 31.4968 82.4204 31.4968ZM82.4204 27.0568C83.4004 27.0568 84.2304 26.6968 84.9104 25.9768C85.6104 25.2568 85.9604 24.2268 85.9604 22.8868C85.9604 21.5468 85.6204 20.5168 84.9404 19.7968C84.2804 19.0768 83.4604 18.7168 82.4804 18.7168C81.4804 18.7168 80.6504 19.0768 79.9904 19.7968C79.3304 20.4968 79.0004 21.5268 79.0004 22.8868C79.0004 24.2268 79.3204 25.2568 79.9604 25.9768C80.6204 26.6968 81.4404 27.0568 82.4204 27.0568ZM99.032 17.3068C99.632 16.3868 100.382 15.6668 101.282 15.1468C102.182 14.6068 103.182 14.3368 104.282 14.3368V19.7668H102.872C101.592 19.7668 100.632 20.0468 99.992 20.6068C99.352 21.1468 99.032 22.1068 99.032 23.4868V31.2568H93.902V14.5168H99.032V17.3068ZM111.864 16.8868C112.364 16.1068 113.054 15.4768 113.934 14.9968C114.814 14.5168 115.844 14.2768 117.024 14.2768C118.404 14.2768 119.654 14.6268 120.774 15.3268C121.894 16.0268 122.774 17.0268 123.414 18.3268C124.074 19.6268 124.404 21.1368 124.404 22.8568C124.404 24.5768 124.074 26.0968 123.414 27.4168C122.774 28.7168 121.894 29.7268 120.774 30.4468C119.654 31.1468 118.404 31.4968 117.024 31.4968C115.864 31.4968 114.834 31.2568 113.934 30.7768C113.054 30.2968 112.364 29.6768 111.864 28.9168V39.2368H106.734V14.5168H111.864V16.8868ZM119.184 22.8568C119.184 21.5768 118.824 20.5768 118.104 19.8568C117.404 19.1168 116.534 18.7468 115.494 18.7468C114.474 18.7468 113.604 19.1168 112.884 19.8568C112.184 20.5968 111.834 21.6068 111.834 22.8868C111.834 24.1668 112.184 25.1768 112.884 25.9168C113.604 26.6568 114.474 27.0268 115.494 27.0268C116.514 27.0268 117.384 26.6568 118.104 25.9168C118.824 25.1568 119.184 24.1368 119.184 22.8568ZM132.225 17.3068C132.825 16.3868 133.575 15.6668 134.475 15.1468C135.375 14.6068 136.375 14.3368 137.475 14.3368V19.7668H136.065C134.785 19.7668 133.825 20.0468 133.185 20.6068C132.545 21.1468 132.225 22.1068 132.225 23.4868V31.2568H127.095V14.5168H132.225V17.3068ZM138.907 22.8568C138.907 21.1368 139.227 19.6268 139.867 18.3268C140.527 17.0268 141.417 16.0268 142.537 15.3268C143.657 14.6268 144.907 14.2768 146.287 14.2768C147.467 14.2768 148.497 14.5168 149.377 14.9968C150.277 15.4768 150.967 16.1068 151.447 16.8868V14.5168H156.577V31.2568H151.447V28.8868C150.947 29.6668 150.247 30.2968 149.347 30.7768C148.467 31.2568 147.437 31.4968 146.257 31.4968C144.897 31.4968 143.657 31.1468 142.537 30.4468C141.417 29.7268 140.527 28.7168 139.867 27.4168C139.227 26.0968 138.907 24.5768 138.907 22.8568ZM151.447 22.8868C151.447 21.6068 151.087 20.5968 150.367 19.8568C149.667 19.1168 148.807 18.7468 147.787 18.7468C146.767 18.7468 145.897 19.1168 145.177 19.8568C144.477 20.5768 144.127 21.5768 144.127 22.8568C144.127 24.1368 144.477 25.1568 145.177 25.9168C145.897 26.6568 146.767 27.0268 147.787 27.0268C148.807 27.0268 149.667 26.6568 150.367 25.9168C151.087 25.1768 151.447 24.1668 151.447 22.8868ZM169.619 26.9068V31.2568H167.009C165.149 31.2568 163.699 30.8068 162.659 29.9068C161.619 28.9868 161.099 27.4968 161.099 25.4368V18.7768H159.059V14.5168H161.099V10.4368H166.229V14.5168H169.589V18.7768H166.229V25.4968C166.229 25.9968 166.349 26.3568 166.589 26.5768C166.829 26.7968 167.229 26.9068 167.789 26.9068H169.619ZM188.256 22.6168C188.256 23.0968 188.226 23.5968 188.166 24.1168H176.556C176.636 25.1568 176.966 25.9568 177.546 26.5168C178.146 27.0568 178.876 27.3268 179.736 27.3268C181.016 27.3268 181.906 26.7868 182.406 25.7068H187.866C187.586 26.8068 187.076 27.7968 186.336 28.6768C185.616 29.5568 184.706 30.2468 183.606 30.7468C182.506 31.2468 181.276 31.4968 179.916 31.4968C178.276 31.4968 176.816 31.1468 175.536 30.4468C174.256 29.7468 173.256 28.7468 172.536 27.4468C171.816 26.1468 171.456 24.6268 171.456 22.8868C171.456 21.1468 171.806 19.6268 172.506 18.3268C173.226 17.0268 174.226 16.0268 175.506 15.3268C176.786 14.6268 178.256 14.2768 179.916 14.2768C181.536 14.2768 182.976 14.6168 184.236 15.2968C185.496 15.9768 186.476 16.9468 187.176 18.2068C187.896 19.4668 188.256 20.9368 188.256 22.6168ZM183.006 21.2668C183.006 20.3868 182.706 19.6868 182.106 19.1668C181.506 18.6468 180.756 18.3868 179.856 18.3868C178.996 18.3868 178.266 18.6368 177.666 19.1368C177.086 19.6368 176.726 20.3468 176.586 21.2668H183.006Z" fill="white"/>
<path d="M193.363 31.4968C192.463 31.4968 191.723 31.2368 191.143 30.7168C190.583 30.1768 190.303 29.5168 190.303 28.7368C190.303 27.9368 190.583 27.2668 191.143 26.7268C191.723 26.1868 192.463 25.9168 193.363 25.9168C194.243 25.9168 194.963 26.1868 195.523 26.7268C196.103 27.2668 196.393 27.9368 196.393 28.7368C196.393 29.5168 196.103 30.1768 195.523 30.7168C194.963 31.2368 194.243 31.4968 193.363 31.4968Z" fill="#E1403C"/>
<path d="M20.0488 19.6955C21.1281 17.042 24.5543 10.6737 33.7656 6.22223C26.0191 -1.08844 13.9972 -1.01532 6.35742 6.14373C12.5859 8.94563 17.683 13.2308 20.0488 19.6955ZM28.1473 5.30177L28.7622 5.62707C25.2572 8.03357 22.7009 10.2639 20.0691 14.1911C17.5251 10.1778 14.9462 7.94102 11.3376 5.58167L11.9781 5.25098C17.0165 2.6496 23.1837 2.67945 28.1473 5.30177Z" fill="url(#paint0_linear_335_10248)"/>
<path d="M35.4351 7.97955C27.3301 11.5475 22.8347 16.5754 20.43 24.7366L20.0444 26.046C17.8387 18.5584 14.8024 12.4474 4.65349 7.97955C1.65044 11.5775 0 16.1166 0 20.7952C0 30.6389 7.25336 39.0768 16.8843 40.5852C16.8843 38.8614 16.6768 32.4895 16.183 29.9266C14.3217 20.2764 10.5739 16.4275 6.40626 14.2708C2.84215 20.5665 5.30421 29.3256 11.9476 33.6797L11.5468 29.9112C8.17658 26.4899 6.82711 22.8177 7.42027 18.69L7.52749 17.9464L8.10536 18.4266C12.9722 22.4662 14.5121 31.0431 14.3857 37.3473L13.8273 37.1343C4.12202 33.4394 -1.16488 21.4118 5.57846 11.1712C13.1272 15.2057 18.8719 21.1078 18.9224 40.7569C19.0871 40.7564 20.9482 40.7564 21.1664 40.7569C21.217 21.1078 26.9618 15.2057 34.5101 11.1712C41.2535 21.4118 35.9668 33.4394 26.2615 37.1343L25.7032 37.3473C25.5766 31.043 27.1168 22.4662 31.9833 18.4266L32.5612 17.9464L32.6687 18.69C33.262 22.8178 31.9123 26.4899 28.5423 29.9112L28.1414 33.6797C34.7848 29.3256 37.2468 20.5666 33.6827 14.2708C29.5147 16.4275 25.767 20.2764 23.9057 29.9266C23.4119 32.4896 23.2045 38.8614 23.2045 40.5852C32.8352 39.077 40.0887 30.6389 40.0887 20.7952C40.0886 16.1166 38.4383 11.5776 35.4351 7.97955Z" fill="url(#paint1_linear_335_10248)"/>
<defs>
<linearGradient id="paint0_linear_335_10248" x1="6.35742" y1="10.2262" x2="33.7656" y2="10.2262" gradientUnits="userSpaceOnUse">
<stop stop-color="#1956C1"/>
<stop offset="1" stop-color="#E2403B"/>
</linearGradient>
<linearGradient id="paint1_linear_335_10248" x1="0" y1="24.3682" x2="40.0887" y2="24.3682" gradientUnits="userSpaceOnUse">
<stop stop-color="#1956C1"/>
<stop offset="1" stop-color="#E2403B"/>
</linearGradient>
</defs>
</svg>
