<svg version="1.2" xmlns="http://www.w3.org/2000/svg" viewBox="0 0 50 51" width="50" height="51"><defs><clipPath clipPathUnits="userSpaceOnUse" id="cp1"><path d="m0 0.57h50v50h-50z"/></clipPath><linearGradient id="P" gradientUnits="userSpaceOnUse"/><linearGradient id="g1" x2="1" href="#P" gradientTransform="matrix(40,0,0,50,5,25.568)"><stop stop-color="#1956c1"/><stop offset="1" stop-color="#e2403b"/></linearGradient></defs><style>.a{fill:url(#g1)}</style><filter id="f0"><feFlood flood-color="#b4924a" flood-opacity="1" /><feBlend mode="normal" in2="SourceGraphic"/><feComposite in2="SourceAlpha" operator="in" /></filter><g clip-path="url(#cp1)" filter="url(#f0)"><path class="a" d="m13 36.4l-2.8 0.7c-1.5 0.3-2.8 1.1-3.7 2.3-1 1.2-1.5 2.7-1.5 4.2v1.3c0 0.9 0.3 1.8 0.9 2.6 0.5 0.7 1.3 1.2 2.2 1.4 2.7 0.8 7.8 1.7 16.9 1.7 9.1 0 14.2-0.9 16.9-1.7 0.9-0.2 1.7-0.7 2.2-1.4 0.6-0.8 0.9-1.7 0.9-2.6v-1.3c0-1.5-0.5-3-1.5-4.2-0.9-1.2-2.2-2-3.7-2.3l-2.8-0.7-3.8-2.2-1.6-3.6 0.5-0.6 0.4 0.1q0.6 0.2 1.2 0.2c1.2 0 2.4-0.5 3.3-1.4 0.8-0.9 1.3-2.1 1.3-3.3v-1c0.7-0.2 1.4-0.6 1.8-1.2 0.5-0.5 0.7-1.3 0.7-2v-3.3c0-0.8-0.2-1.5-0.7-2.1-0.4-0.5-1.1-1-1.8-1.1v-1c0-3.5-1.4-6.9-3.9-9.4-2.5-2.5-5.9-3.9-9.4-3.9-3.5 0-6.9 1.4-9.4 3.9-2.5 2.5-3.9 5.9-3.9 9.4v1c-0.7 0.1-1.4 0.6-1.8 1.1-0.5 0.6-0.7 1.3-0.7 2.1v3.3c0 0.9 0.3 1.7 0.9 2.4 0.7 0.6 1.5 0.9 2.4 0.9h1.7q0.4 0 0.8-0.1v0.3c0 1.2 0.4 2.3 1.2 3.2l2.2 2.5-1.6 3.6zm4.3-0.6c1.5 1.9 3.6 3.4 5.9 4.2q-1.2 1.2-2 2.8c-2.6-1.3-4.9-3.1-6.6-5.4zm26 7.7v1.4c0 0.5-0.1 1-0.5 1.5-0.3 0.4-0.8 0.7-1.3 0.9-2.6 0.7-7.6 1.5-16.5 1.5-8.9 0-13.9-0.8-16.5-1.5-0.5-0.2-1-0.5-1.3-0.9-0.3-0.5-0.5-1-0.5-1.5v-1.4c0-1.1 0.4-2.2 1.1-3.1 0.7-0.9 1.7-1.5 2.8-1.8l2.4-0.5c0.9 1.3 3.8 4.7 7.8 6.3 0.4 0.1 0.7 0.1 1.1 0 0.3-0.1 0.6-0.4 0.8-0.7 0.5-1.2 1.3-2.2 2.3-3 1 0.8 1.8 1.8 2.4 3q0.2 0.3 0.5 0.6 0.4 0.2 0.8 0.2 0.3 0 0.5-0.1c4-1.6 6.9-5 7.8-6.3l2.4 0.5c1.1 0.3 2.1 0.9 2.9 1.8 0.7 0.9 1.1 2 1 3.1zm-14.5-0.7q-0.8-1.5-2-2.7c2.4-0.8 4.4-2.3 5.9-4.3l2.8 1.6c-1.8 2.3-4.1 4.2-6.7 5.4zm6.7-14.9c-0.6 0.5-1.3 0.7-2.1 0.6l0.4-0.5c0.8-0.9 1.2-2 1.2-3.2v-0.3q0.4 0.2 0.8 0.2h0.9v0.9q0 0.6-0.3 1.3-0.3 0.6-0.9 1zm-10.5-25.7c3.1 0 6.1 1.2 8.3 3.4 2.1 2.2 3.4 5.1 3.4 8.2v0.9h-0.9q-0.4 0-0.8 0.1v-1c0-2.6-1-5.2-2.9-7-1.9-1.9-4.4-3-7.1-3-5.3 0-10 5.1-10 10.9v0.1q-0.4-0.1-0.8-0.1h-0.9v-0.9c0-3.1 1.3-6 3.5-8.2 2.2-2.2 5.1-3.4 8.2-3.4zm14.2 15.8v3.3c0 0.5-0.2 0.9-0.5 1.2-0.3 0.3-0.7 0.5-1.2 0.5h-1.7q-0.3 0-0.5-0.2-0.3-0.3-0.3-0.6v-5q0-0.4 0.3-0.6 0.2-0.3 0.5-0.3h1.7c0.5 0 0.9 0.2 1.2 0.5 0.3 0.3 0.5 0.8 0.5 1.2zm-5.9-3.3c-7.6-0.3-9.2-3.6-9.2-3.7q-0.1-0.2-0.3-0.4-0.2-0.1-0.5-0.1c-2.4 0-4.7 0.9-6.5 2.6 0.8-4.1 4.3-7.6 8.2-7.6 2.2 0 4.3 0.9 5.9 2.4 1.6 1.6 2.4 3.7 2.4 5.9zm-19.1 8.4h-1.7c-0.4 0-0.9-0.2-1.2-0.5-0.3-0.3-0.5-0.7-0.5-1.2v-3.3c0-0.5 0.2-0.9 0.5-1.2 0.3-0.3 0.8-0.5 1.2-0.5h1.7q0.3 0 0.6 0.3 0.2 0.2 0.2 0.5v5q0 0.4-0.2 0.6-0.3 0.3-0.6 0.3zm2.5 1.8v-9.1c0.7-1 1.6-1.8 2.7-2.4 1-0.7 2.2-1 3.5-1.1 0.8 1.2 3.3 3.9 10.4 4.1v8.5c0 0.8-0.2 1.5-0.8 2.1l-0.9 1.1-2.4-0.6 0.1-0.1q0-0.3 0-0.6-0.1-0.4-0.2-0.7-0.2-0.2-0.5-0.4-0.3-0.2-0.6-0.3l-2.4-0.6c-0.7-0.1-1.3 0-1.9 0.3-0.6 0.4-1 0.9-1.1 1.6-0.2 0.6-0.1 1.3 0.3 1.9 0.3 0.5 0.9 0.9 1.5 1.1l2.5 0.6q0.2 0 0.4 0 0.5 0 0.9-0.3 0.5-0.3 0.6-0.9l1.5 0.4-1.2 1.5q-0.5 0.6-1.3 0.9-0.7 0.3-1.6 0.3h-2.4q-0.8 0-1.6-0.3-0.7-0.3-1.3-0.9l-3.4-4c-0.5-0.6-0.8-1.3-0.8-2.1zm10.9 2.1l-0.4 1.6-2.4-0.5q-0.1-0.1-0.3-0.2-0.1-0.1-0.2-0.2-0.1-0.2-0.1-0.3 0-0.2 0-0.3 0-0.2 0.1-0.3 0.1-0.2 0.3-0.3 0.1-0.1 0.3-0.1 0.1 0 0.3 0zm-8 5.1q0.8 0.9 1.9 1.3 1.1 0.5 2.2 0.5h2.5q1.2 0 2.3-0.5 1-0.4 1.8-1.3l0.1-0.1 1.1 2.7c-1.5 2.2-3.9 3.7-6.5 4.2-2.7-0.5-5-2-6.6-4.2l1.2-2.7z"/></g></svg>