<svg version="1.2" xmlns="http://www.w3.org/2000/svg" viewBox="0 0 50 51" width="50" height="51"><defs><clipPath clipPathUnits="userSpaceOnUse" id="cp1"><path d="m0 0.69h50v50h-50z"/></clipPath><linearGradient id="P" gradientUnits="userSpaceOnUse"/><linearGradient id="g1" x2="1" href="#P" gradientTransform="matrix(15.454,0,0,15.395,17.273,17.826)"><stop stop-color="#1956c1"/><stop offset="1" stop-color="#e2403b"/></linearGradient><linearGradient id="g2" x2="1" href="#P" gradientTransform="matrix(6.041,0,0,5.866,21.98,17.825)"><stop stop-color="#1956c1"/><stop offset="1" stop-color="#e2403b"/></linearGradient><linearGradient id="g3" x2="1" href="#P" gradientTransform="matrix(27.806,0,0,35.635,11.097,25.286)"><stop stop-color="#1956c1"/><stop offset="1" stop-color="#e2403b"/></linearGradient><linearGradient id="g4" x2="1" href="#P" gradientTransform="matrix(15.458,0,0,4.659,17.27,44.269)"><stop stop-color="#1956c1"/><stop offset="1" stop-color="#e2403b"/></linearGradient><linearGradient id="g5" x2="1" href="#P" gradientTransform="matrix(15.737,0,0,1.172,17.137,38.911)"><stop stop-color="#1956c1"/><stop offset="1" stop-color="#e2403b"/></linearGradient><linearGradient id="g6" x2="1" href="#P" gradientTransform="matrix(9.38,0,0,5.26,20.295,48.057)"><stop stop-color="#1956c1"/><stop offset="1" stop-color="#e2403b"/></linearGradient><linearGradient id="g7" x2="1" href="#P" gradientTransform="matrix(4.518,0,0,12.776,26.741,33.109)"><stop stop-color="#1956c1"/><stop offset="1" stop-color="#e2403b"/></linearGradient><linearGradient id="g8" x2="1" href="#P" gradientTransform="matrix(4.517,0,0,12.776,18.742,33.109)"><stop stop-color="#1956c1"/><stop offset="1" stop-color="#e2403b"/></linearGradient><linearGradient id="g9" x2="1" href="#P" gradientTransform="matrix(1.172,0,0,6.315,24.415,3.853)"><stop stop-color="#1956c1"/><stop offset="1" stop-color="#e2403b"/></linearGradient><linearGradient id="g10" x2="1" href="#P" gradientTransform="matrix(3.755,0,0,5.634,34.556,6.911)"><stop stop-color="#1956c1"/><stop offset="1" stop-color="#e2403b"/></linearGradient><linearGradient id="g11" x2="1" href="#P" gradientTransform="matrix(5.634,0,0,3.755,41.981,15.275)"><stop stop-color="#1956c1"/><stop offset="1" stop-color="#e2403b"/></linearGradient><linearGradient id="g12" x2="1" href="#P" gradientTransform="matrix(3.756,0,0,5.634,11.688,6.911)"><stop stop-color="#1956c1"/><stop offset="1" stop-color="#e2403b"/></linearGradient><linearGradient id="g13" x2="1" href="#P" gradientTransform="matrix(5.633,0,0,3.755,2.385,15.275)"><stop stop-color="#1956c1"/><stop offset="1" stop-color="#e2403b"/></linearGradient></defs><style>.a{fill:url(#g1)}.b{fill:url(#g2)}.c{fill:url(#g3)}.d{fill:url(#g4)}.e{fill:url(#g5)}.f{fill:url(#g6)}.g{fill:url(#g7)}.h{fill:url(#g8)}.i{fill:url(#g9)}.j{fill:url(#g10)}.k{fill:url(#g11)}.l{fill:url(#g12)}.m{fill:url(#g13)}</style><filter id="f0"><feFlood flood-color="#b4924a" flood-opacity="1" /><feBlend mode="normal" in2="SourceGraphic"/><feComposite in2="SourceAlpha" operator="in" /></filter><g clip-path="url(#cp1)" filter="url(#f0)"><path fill-rule="evenodd" class="a" d="m26.5 25.5c-4 0-3.6 0.4-3.6-1.8q-1.2-0.4-2.1-1.2c-2 1.1-1.4 1.3-3.4-2.1-0.4-0.7 0.6-1 1.3-1.4q-0.2-1.2 0-2.3c-2-1.1-1.8-0.6 0.2-4 0.4-0.6 1.2 0 1.9 0.4q0.9-0.8 2.1-1.2c0-2.1-0.4-1.7 3.6-1.7 0.8 0 0.6 1 0.6 1.7q1.2 0.4 2.1 1.2c2-1.1 1.4-1.2 3.4 2.2 0.4 0.7-0.6 1-1.3 1.4q0.2 1.1 0 2.3c2 1.1 1.8 0.6-0.2 3.9-0.4 0.7-1.2 0-1.9-0.4q-0.9 0.8-2.1 1.2c0 0.8 0.2 1.8-0.6 1.8zm-2.4-1.2h1.8c0-0.7-0.1-1.4 0.5-1.6 2.2-0.6 2.3-1.8 3-1.4l1 0.6 0.9-1.6c-1.9-1.1-1-0.5-1-2.5 0-1.9-0.9-1.4 1-2.5l-0.9-1.5c-0.7 0.4-1.3 0.9-1.7 0.5-1.6-1.6-2.8-1-2.8-1.9v-1.1h-1.8c0 0.8 0.1 1.5-0.5 1.7-2.2 0.5-2.3 1.8-3 1.3l-1-0.5-0.9 1.5c1.9 1.1 1 0.6 1 2.5 0 1.9 0.9 1.4-1 2.5l0.9 1.6c0.7-0.4 1.3-0.9 1.7-0.5 1.6 1.5 2.8 1 2.8 1.9v1z"/><path fill-rule="evenodd" class="b" d="m25 20.8c-1.7 0-3-1.4-3-3 0-1.6 1.3-2.9 3-2.9 1.7 0 3 1.3 3 2.9 0 1.6-1.3 3-3 3zm0-4.7c-2.4 0-2.4 3.5 0 3.5 2.4 0 2.4-3.5 0-3.5z"/><path fill-rule="evenodd" class="c" d="m32.1 43.1h-14.2c-0.4 0-0.6-0.3-0.6-0.6 0-14.6-6.2-11.9-6.2-21.1 0-7.7 6.2-13.9 13.9-13.9 7.7 0 13.9 6.2 13.9 13.9 0 9.2-6.2 6.5-6.2 21.1 0 0.3-0.2 0.6-0.6 0.6zm-13.7-1.2h13.2c0.1-14.3 6.1-12 6.1-20.5 0-7-5.7-12.8-12.7-12.8-7 0-12.7 5.8-12.7 12.8 0 8.5 6 6.2 6.1 20.5z"/><path fill-rule="evenodd" class="d" d="m32.1 46.6h-14.2c-0.4 0-0.6-0.3-0.6-0.6v-3.5c0-0.8 1.1-0.8 1.1 0v2.9h13.2v-2.9c0-0.8 1.1-0.8 1.1 0v3.5c0 0.3-0.2 0.6-0.6 0.6z"/><path fill-rule="evenodd" class="e" d="m32.3 39.5h-14.6c-0.8 0-0.8-1.2 0-1.2h14.6c0.8 0 0.8 1.2 0 1.2z"/><path fill-rule="evenodd" class="f" d="m25 50.7c-4.2 0-5.7-5.3-4.1-5.3 0.3 0 0.6 0.3 0.6 0.6 0 1.9 1.6 3.5 3.5 3.5 1.9 0 3.5-1.6 3.5-3.5 0-0.8 1.2-0.8 1.2 0 0 2.6-2.1 4.7-4.7 4.7z"/><path fill-rule="evenodd" class="g" d="m27.3 39.5c-0.3 0-0.6-0.3-0.6-0.6v-9.7c0-0.2 0.2-0.4 0.3-0.5l3.4-1.9c0.6-0.4 1.2 0.6 0.6 1l-3.1 1.8v9.3c0 0.3-0.2 0.6-0.6 0.6z"/><path fill-rule="evenodd" class="h" d="m22.7 39.5c-0.4 0-0.6-0.3-0.6-0.6v-9.3l-3.1-1.8c-0.6-0.4 0-1.4 0.6-1l3.4 1.9c0.1 0.1 0.3 0.3 0.3 0.5v9.7c0 0.3-0.3 0.6-0.6 0.6z"/><path fill-rule="evenodd" class="i" d="m25 7c-0.3 0-0.6-0.3-0.6-0.6v-5.1c0-0.8 1.2-0.8 1.2 0v5.1c0 0.3-0.3 0.6-0.6 0.6z"/><path fill-rule="evenodd" class="j" d="m35.1 9.7c-0.4 0-0.7-0.5-0.5-0.9l2.6-4.4c0.4-0.7 1.4-0.1 1 0.6l-2.6 4.4c-0.1 0.2-0.3 0.3-0.5 0.3z"/><path fill-rule="evenodd" class="k" d="m42.6 17.2c-0.6 0-0.8-0.8-0.3-1.1l4.4-2.6c0.7-0.4 1.3 0.6 0.6 1-0.6 0.3-4.4 2.7-4.7 2.7z"/><path fill-rule="evenodd" class="l" d="m14.9 9.7c-0.2 0-0.4-0.1-0.6-0.3l-2.5-4.4c-0.4-0.7 0.6-1.3 1-0.6l2.6 4.4c0.2 0.4-0.1 0.9-0.5 0.9z"/><path fill-rule="evenodd" class="m" d="m7.4 17.2c-0.3 0-4.1-2.4-4.7-2.7-0.7-0.4-0.1-1.4 0.6-1l4.4 2.6c0.5 0.3 0.3 1.1-0.3 1.1z"/></g></svg>