<svg version="1.2" xmlns="http://www.w3.org/2000/svg" viewBox="0 0 51 51" width="51" height="51"><style>.a{fill:#b4924a}</style><path fill-rule="evenodd" class="a" d="m35.4 14.7c-10.3 9.6-20.8 14.4-30.3 17.4-0.4 0.2-0.9-0.1-1-0.5-0.1-0.4 0.1-0.8 0.5-1 9.4-2.9 19.7-7.7 29.8-17.1-0.2-1.3-0.4-4.6 2-7.5 1.9-2.4 5.6-4.5 12.6-4.9 0.3 0 0.5 0.2 0.7 0.4 0.1 0.2 0.1 0.6 0 0.8 0 0-2.8 4.8-3.5 7.2-0.6 2.3-1.8 3.7-3 4.6-2.9 1.9-6.5 1-7.8 0.6zm1.3-1.3c1.4 0.3 3.7 0.6 5.6-0.6 1-0.7 1.9-1.9 2.4-3.7 0.5-1.8 2-4.7 2.9-6.3-5.4 0.5-8.4 2.2-10 4.1-1.5 1.8-1.7 3.8-1.7 5.1 1.2-1.2 3.2-3.1 5.3-4.5 0.4-0.2 0.9-0.1 1.1 0.3 0.2 0.3 0.1 0.8-0.2 1-2.2 1.5-4.3 3.5-5.4 4.6zm10 32.4h2.3c0.4 0 0.8 0.4 0.8 0.8v2.4c0 0.4-0.4 0.8-0.8 0.8h-47c-0.5 0-0.8-0.4-0.8-0.8v-2.4c0-0.4 0.3-0.8 0.8-0.8h2.2v-10.5c0-0.4 0.4-0.8 0.8-0.8h6.2c0.5 0 0.8 0.4 0.8 0.8v10.5h3.8v-16.8c0-0.4 0.3-0.7 0.8-0.7h6.2c0.4 0 0.8 0.3 0.8 0.7v16.8h3.8v-23.3c0-0.4 0.3-0.8 0.8-0.8h6.2c0.4 0 0.8 0.4 0.8 0.8v23.3h3.7v-29.2c0-0.4 0.4-0.8 0.8-0.8h6.3c0.4 0 0.7 0.4 0.7 0.8zm-40.9 0h4.6v-9.7h-4.6zm11.6 0h4.6v-16h-4.6zm11.5 0h4.7c0-4.1 0-22.6 0-22.6h-4.7zm11.6 0h4.7v-28.4h-4.7zm-37.8 2.3h45.5v-0.8h-45.5zm20-30c0.4-0.1 0.8 0.1 0.9 0.5 0.1 0.4-0.1 0.9-0.6 1l-2 0.6c-0.2 0-0.5 0-0.7-0.1-0.2-0.2-0.3-0.4-0.3-0.6l-0.1-2.2c0-0.4 0.3-0.8 0.7-0.8 0.4 0 0.8 0.3 0.8 0.7 0.8-1.4 1.3-3 1.3-4.8 0-5.4-4.5-9.7-10-9.7q-0.9 0-1.8 0.1c-0.4 0.1-0.8-0.2-0.9-0.6-0.1-0.4 0.2-0.8 0.6-0.9q1-0.2 2.1-0.2c6.4 0 11.5 5.1 11.5 11.3 0 2.1-0.5 4-1.5 5.7zm-20-11.3c-0.4 0.1-0.8-0.2-0.9-0.6-0.1-0.4 0.2-0.8 0.6-0.9l2-0.6c0.2 0 0.5 0 0.7 0.2 0.2 0.1 0.3 0.3 0.3 0.6l0.1 2.1c0 0.4-0.3 0.8-0.8 0.8-0.3 0-0.7-0.3-0.8-0.6-0.7 1.4-1.2 3-1.2 4.6 0 5.5 4.5 9.8 10 9.8q0.9 0 1.8-0.1c0.4-0.1 0.8 0.2 0.9 0.6 0.1 0.4-0.2 0.8-0.6 0.9q-1 0.2-2.1 0.2c-6.4 0-11.5-5.1-11.5-11.4 0-2 0.5-3.9 1.5-5.6zm10 14.1c-4.7 0-8.5-3.8-8.5-8.5 0-4.6 3.8-8.4 8.5-8.4 4.7 0 8.5 3.8 8.5 8.4 0 4.7-3.8 8.5-8.5 8.5zm0-1.5c3.8 0 6.9-3.1 6.9-7 0-3.8-3.1-6.9-6.9-6.9-3.8 0-6.9 3.1-6.9 6.9 0 3.9 3.1 7 6.9 7zm-0.8-11.4v-0.4c0-0.4 0.4-0.8 0.8-0.8 0.4 0 0.8 0.4 0.8 0.8v0.4c0.9 0.2 1.8 0.8 2.2 1.8 0.2 0.4 0 0.9-0.4 1-0.4 0.2-0.9 0-1.1-0.4-0.4-0.9-1.4-1.1-2.2-0.8-0.4 0.2-0.7 0.5-0.7 1 0 0.4 0.3 0.6 0.6 0.8 0.3 0.1 0.6 0.2 0.9 0.2 1.4 0.3 2.9 0.9 3.1 2.6 0.2 1.6-1.1 2.5-2.4 2.7v0.4c0 0.4-0.4 0.8-0.8 0.8-0.4 0-0.8-0.4-0.8-0.8v-0.4c-1.1-0.2-2.1-1-2.4-2.2-0.1-0.4 0.1-0.8 0.5-0.9 0.5-0.1 0.9 0.1 1 0.5 0.2 0.8 1 1.2 1.8 1.1 0.4 0 0.9-0.1 1.2-0.3 0.3-0.2 0.4-0.4 0.4-0.8-0.1-0.4-0.4-0.6-0.7-0.8-0.4-0.2-0.8-0.2-1.1-0.3-1.4-0.2-2.8-0.9-2.9-2.5-0.1-1.3 0.7-2.2 1.8-2.6q0.2-0.1 0.4-0.1z"/></svg>