<svg version="1.2" xmlns="http://www.w3.org/2000/svg" viewBox="0 0 50 51" width="50" height="51"><style>.a{fill:#b4924a}</style><path class="a" d="m25.8 5.1v-1.9c0-0.4-0.4-0.7-0.8-0.7-0.4 0-0.8 0.3-0.8 0.7v1.9c0 0.5 0.4 0.8 0.8 0.8 0.4 0 0.8-0.3 0.8-0.8z"/><path class="a" d="m24.2 46.6v1.9c0 0.5 0.4 0.8 0.8 0.8 0.4 0 0.8-0.3 0.8-0.8v-1.9c0-0.4-0.4-0.7-0.8-0.7-0.4 0-0.8 0.3-0.8 0.7z"/><path class="a" d="m45.7 25.1c-0.4 0-0.7 0.4-0.7 0.8 0 0.4 0.3 0.8 0.7 0.8h2c0.4 0 0.7-0.4 0.7-0.8 0-0.4-0.3-0.8-0.7-0.8z"/><path class="a" d="m2.3 26.7h2c0.4 0 0.7-0.4 0.7-0.8 0-0.4-0.3-0.8-0.7-0.8h-2c-0.4 0-0.7 0.4-0.7 0.8 0 0.4 0.3 0.8 0.7 0.8z"/><path class="a" d="m41.6 9.3c-0.3-0.3-0.8-0.3-1.1 0l-1.4 1.4c-0.3 0.3-0.3 0.8 0 1.1q0.3 0.2 0.6 0.2 0.3 0 0.5-0.2l1.4-1.4c0.3-0.3 0.3-0.8 0-1.1z"/><path class="a" d="m8.4 42.5q0.3 0.2 0.6 0.2 0.3 0 0.5-0.2l1.4-1.4c0.3-0.3 0.3-0.8 0-1.1-0.3-0.3-0.8-0.3-1.1 0l-1.4 1.4c-0.3 0.3-0.3 0.8 0 1.1z"/><path class="a" d="m40.5 42.5q0.2 0.2 0.5 0.2 0.3 0 0.6-0.2c0.3-0.3 0.3-0.8 0-1.1l-1.4-1.4c-0.3-0.3-0.8-0.3-1.1 0-0.3 0.3-0.3 0.8 0 1.1z"/><path class="a" d="m9.8 11.8q0.2 0.2 0.5 0.2 0.3 0 0.6-0.2c0.3-0.3 0.3-0.8 0-1.1l-1.4-1.4c-0.3-0.3-0.8-0.3-1.1 0-0.3 0.3-0.3 0.8 0 1.1z"/><path class="a" d="m40.3 25.7c0 8.6-6.9 15.5-15.5 15.5-8.5 0-15.4-6.9-15.4-15.5 0-8.5 6.9-15.4 15.4-15.4 8.6 0 15.5 6.9 15.5 15.4zm-2.4 0c0-7.2-5.9-13-13.1-13-7.2 0-13 5.8-13 13 0 7.2 5.8 13.1 13 13.1 7.2 0 13.1-5.9 13.1-13.1zm-6.2-4.9c0.4 0.5 0.4 1.3 0 1.7l-8.1 8.1c-0.5 0.5-1.3 0.5-1.7 0l-3.9-3.8c-0.5-0.5-0.5-1.3 0-1.7 0.5-0.5 1.2-0.5 1.7 0l3 3 7.3-7.3c0.4-0.5 1.2-0.5 1.7 0z"/></svg>