<svg version="1.2" xmlns="http://www.w3.org/2000/svg" viewBox="0 0 50 51" width="50" height="51"><style>.a{fill:#b4924a}</style><path class="a" d="m25 18.1c-1.2 0-2.4 0.3-3.5 1-1 0.7-1.8 1.7-2.3 2.8-0.4 1.2-0.6 2.4-0.3 3.6 0.2 1.3 0.8 2.4 1.7 3.2 0.9 0.9 2 1.5 3.2 1.8 1.2 0.2 2.4 0.1 3.6-0.4 1.1-0.5 2.1-1.3 2.8-2.3 0.7-1 1-2.2 1-3.5 0-1.6-0.6-3.2-1.8-4.4-1.2-1.2-2.7-1.8-4.4-1.8zm0 10.9c-0.9 0-1.8-0.3-2.6-0.8-0.8-0.5-1.4-1.2-1.7-2.1-0.4-0.8-0.5-1.8-0.3-2.7 0.2-0.9 0.6-1.7 1.3-2.4 0.6-0.6 1.5-1.1 2.4-1.3 0.9-0.2 1.8-0.1 2.7 0.3 0.9 0.4 1.6 1 2.1 1.7 0.5 0.8 0.8 1.7 0.8 2.6 0 1.3-0.5 2.5-1.4 3.3-0.9 0.9-2.1 1.4-3.3 1.4z"/><path class="a" d="m14.4 36.9c0.8 1 1.2 2.3 1.2 3.6v8.8h1.6v-8.8c0-1.7-0.5-3.3-1.6-4.6l-8.8-10.3c-0.4-0.4-0.6-1-0.6-1.5 0-0.5 0.2-1.1 0.6-1.5q0.2-0.2 0.5-0.4 0.3-0.1 0.6-0.1 0.4 0 0.7 0.1 0.3 0.2 0.5 0.4l6.9 7.9c1.1 1.3 2.5 2.4 4 3.1 1.6 0.7 3.3 1.1 5 1.1 1.7 0 3.4-0.4 4.9-1.1 1.6-0.7 2.9-1.8 4-3.1l7-8q0.2-0.2 0.6-0.4 0.3-0.1 0.6-0.1 0.3 0 0.6 0.1 0.3 0.2 0.5 0.4c0.4 0.5 0.6 1 0.6 1.5 0 0.6-0.2 1.1-0.6 1.5l-8.8 10.4c-1.1 1.3-1.7 2.9-1.7 4.6v8.8h1.6v-8.8c0-1.3 0.4-2.6 1.3-3.6l8.8-10.4c0.6-0.7 0.9-1.5 0.9-2.5 0-0.9-0.3-1.8-0.9-2.5q-0.4-0.5-1-0.8-0.7-0.3-1.3-0.3-0.7 0-1.3 0.3-0.6 0.3-1 0.8l-7.1 7.9c-0.9 1.2-2.1 2.1-3.4 2.7-1.4 0.7-2.8 1-4.3 1-1.5 0-3-0.3-4.3-1-1.4-0.6-2.6-1.5-3.5-2.7l-7-7.8q-0.4-0.5-1-0.8-0.6-0.3-1.3-0.3-0.7 0-1.3 0.3-0.6 0.3-1 0.8c-0.6 0.7-1 1.6-1 2.5 0 1 0.4 1.8 1 2.5z"/><path class="a" d="m21 11.5l-0.6 4.1q-0.1 0.2 0 0.4 0.1 0.2 0.3 0.3 0.2 0.2 0.4 0.2 0.2 0 0.4-0.1l3.5-1.9 3.5 1.9q0.2 0.1 0.4 0.1 0.2 0 0.4-0.1 0.2-0.2 0.3-0.4 0.1-0.2 0-0.4l-0.6-4.1 2.8-3q0.2-0.1 0.2-0.3 0.1-0.2 0-0.4-0.1-0.3-0.2-0.4-0.2-0.1-0.4-0.2l-3.9-0.6-1.8-3.7q-0.1-0.2-0.3-0.3-0.2-0.1-0.4-0.2-0.2 0.1-0.4 0.2-0.2 0.1-0.3 0.3l-1.8 3.7-3.9 0.6q-0.2 0.1-0.4 0.2-0.1 0.1-0.2 0.4-0.1 0.2 0 0.4 0 0.2 0.2 0.3zm2.1-3.3q0.2 0 0.4-0.2 0.1-0.1 0.2-0.3l1.2-2.6 1.3 2.6q0.1 0.2 0.2 0.3 0.2 0.2 0.4 0.2l2.8 0.4-2.1 2.1q-0.1 0.2-0.2 0.3 0 0.2 0 0.4l0.5 2.9-2.5-1.3q-0.2-0.1-0.4-0.1-0.2 0-0.4 0.1l-2.4 1.3 0.5-2.9q0-0.2 0-0.4-0.1-0.1-0.2-0.3l-2.1-2.1z"/><path class="a" d="m9.8 15.9h1.8l1.1 1.5q0.1 0.2 0.3 0.3 0.2 0 0.3 0.1h0.2q0.2-0.1 0.4-0.2 0.1-0.2 0.2-0.4l0.5-1.7 1.7-0.5q0.2-0.1 0.4-0.3 0.1-0.1 0.1-0.4 0.1-0.2 0-0.4-0.1-0.2-0.3-0.3l-1.5-1.1v-1.9q0-0.2-0.2-0.4-0.1-0.2-0.3-0.3-0.2-0.1-0.4 0-0.2 0-0.4 0.1l-1.4 1-1.7-0.6q-0.3-0.1-0.5 0-0.2 0-0.4 0.2-0.1 0.2-0.2 0.4 0 0.2 0.1 0.4l0.6 1.8-1.1 1.4q-0.1 0.2-0.1 0.4 0 0.2 0.1 0.4 0.1 0.2 0.3 0.3 0.1 0.2 0.4 0.2zm2-2.8l-0.2-0.6 0.6 0.2q0.1 0.1 0.3 0 0.2 0 0.4-0.1l0.5-0.4v0.7q0 0.2 0.1 0.4 0.1 0.1 0.2 0.3l0.6 0.4-0.6 0.1q-0.2 0.1-0.3 0.2-0.2 0.2-0.2 0.4l-0.2 0.5-0.4-0.5q-0.1-0.2-0.2-0.3-0.2 0-0.4 0h-0.7l0.4-0.6q0.1-0.2 0.1-0.4 0.1-0.2 0-0.3z"/><path class="a" d="m33.7 15l1.7 0.4 0.5 1.8q0.1 0.2 0.3 0.3 0.1 0.2 0.4 0.2h0.1q0.2 0 0.3-0.1 0.2 0 0.3-0.2l1.1-1.6h1.9q0.2 0 0.4-0.1 0.2-0.1 0.3-0.3 0.1-0.2 0-0.4 0-0.2-0.1-0.4l-1.1-1.4 0.7-1.8q0.1-0.2 0-0.4 0-0.2-0.2-0.4-0.2-0.1-0.4-0.2-0.2 0-0.4 0l-1.8 0.6-1.4-1q-0.2-0.1-0.4-0.1-0.2 0-0.4 0.1-0.2 0.1-0.3 0.2-0.2 0.2-0.2 0.4v1.9l-1.5 1.1q-0.2 0.1-0.3 0.3 0 0.2 0 0.4 0 0.3 0.2 0.4 0.1 0.2 0.3 0.3zm2.5-1.5q0.2-0.1 0.3-0.3 0.1-0.1 0.1-0.3v-0.7l0.5 0.4q0.2 0.1 0.3 0.1 0.2 0 0.4 0l0.6-0.2-0.2 0.5q-0.1 0.2-0.1 0.4 0.1 0.2 0.2 0.4l0.4 0.5h-0.7q-0.2 0-0.4 0.1-0.1 0.1-0.3 0.2l-0.4 0.6-0.1-0.6q-0.1-0.2-0.2-0.4-0.2-0.1-0.4-0.2l-0.5-0.1z"/></svg>