<svg version="1.2" xmlns="http://www.w3.org/2000/svg" viewBox="0 0 50 51" width="50" height="51"><defs><clipPath clipPathUnits="userSpaceOnUse" id="cp1"><path d="m0 0.69h50v50h-50z"/></clipPath><linearGradient id="P" gradientUnits="userSpaceOnUse"/><linearGradient id="g1" x2="1" href="#P" gradientTransform="matrix(48.627,0,0,48.628,.687,25.688)"><stop stop-color="#1956c1"/><stop offset="1" stop-color="#e2403b"/></linearGradient></defs><style>.a{fill:url(#g1)}</style><filter id="f0"><feFlood flood-color="#b4924a" flood-opacity="1" /><feBlend mode="normal" in2="SourceGraphic"/><feComposite in2="SourceAlpha" operator="in" /></filter><g clip-path="url(#cp1)" filter="url(#f0)"><path fill-rule="evenodd" class="a" d="m35 14.9c-10.4 9.6-20.9 14.4-30.4 17.5-0.4 0.1-0.8-0.1-1-0.5-0.1-0.5 0.1-0.9 0.5-1 9.4-3 19.7-7.7 29.9-17.2-0.3-1.2-0.5-4.6 1.9-7.5 1.9-2.4 5.6-4.5 12.6-4.8 0.3 0 0.5 0.1 0.7 0.3 0.1 0.3 0.2 0.6 0 0.8 0 0-2.7 4.8-3.4 7.3-0.7 2.3-1.8 3.7-3.1 4.5-2.9 1.9-6.5 1-7.7 0.6zm1.2-1.2c1.4 0.3 3.7 0.6 5.6-0.7 1-0.7 1.9-1.8 2.5-3.7 0.5-1.7 2-4.6 2.8-6.3-5.4 0.5-8.4 2.2-10 4.2-1.4 1.8-1.7 3.8-1.7 5.1 1.2-1.2 3.2-3.1 5.3-4.5 0.4-0.3 0.9-0.2 1.1 0.2 0.3 0.4 0.2 0.8-0.2 1.1-2.2 1.4-4.2 3.4-5.4 4.6zm10.1 32.4h2.2c0.5 0 0.8 0.3 0.8 0.8v2.3c0 0.5-0.3 0.8-0.8 0.8h-47c-0.5 0-0.8-0.3-0.8-0.8v-2.3c0-0.5 0.3-0.8 0.8-0.8h2.2v-10.5c0-0.5 0.4-0.8 0.8-0.8h6.3c0.4 0 0.7 0.3 0.7 0.8v10.5h3.8v-16.8c0-0.4 0.4-0.8 0.8-0.8h6.2c0.5 0 0.8 0.4 0.8 0.8v16.8h3.8v-23.4c0-0.4 0.3-0.7 0.8-0.7h6.2c0.4 0 0.8 0.3 0.8 0.7v23.4h3.8v-29.2c0-0.5 0.3-0.8 0.7-0.8h6.3c0.4 0 0.8 0.3 0.8 0.8zm-41 0h4.7v-9.8h-4.7zm11.6 0h4.6v-16h-4.6zm11.6 0h4.6c0-4.1 0-22.5 0-22.5h-4.6zm11.5 0h4.7v-28.5h-4.7zm-37.7 2.4h45.4v-0.8h-45.4zm20-30.1c0.3 0 0.7 0.2 0.8 0.6 0.1 0.4-0.1 0.8-0.5 0.9l-2.1 0.6c-0.2 0.1-0.5 0-0.6-0.1-0.2-0.1-0.4-0.4-0.4-0.6l-0.1-2.1c0-0.4 0.3-0.8 0.7-0.8 0.4-0.1 0.8 0.2 0.9 0.6 0.7-1.4 1.2-3 1.2-4.7 0-5.4-4.5-9.8-10-9.8q-0.9 0-1.8 0.2c-0.4 0-0.8-0.2-0.9-0.7-0.1-0.4 0.2-0.8 0.6-0.9q1.1-0.2 2.1-0.2c6.4 0 11.6 5.1 11.6 11.4 0 2-0.6 3.9-1.5 5.6zm-20.1-11.3c-0.4 0.1-0.8-0.1-0.9-0.5-0.1-0.4 0.2-0.9 0.6-1l2-0.5c0.3-0.1 0.5 0 0.7 0.1 0.2 0.1 0.3 0.4 0.3 0.6l0.1 2.1c0 0.4-0.3 0.8-0.7 0.8-0.4 0-0.8-0.2-0.8-0.6-0.8 1.4-1.2 3-1.2 4.7 0 5.4 4.4 9.8 9.9 9.8q0.9 0 1.8-0.2c0.4-0.1 0.9 0.2 0.9 0.7 0.1 0.4-0.2 0.8-0.6 0.9q-1 0.2-2.1 0.2c-6.3 0-11.5-5.1-11.5-11.4 0-2.1 0.5-4 1.5-5.7zm10 14.2c-4.6 0-8.5-3.8-8.5-8.5 0-4.7 3.9-8.5 8.5-8.5 4.7 0 8.5 3.8 8.5 8.5 0 4.7-3.8 8.5-8.5 8.5zm0-1.6c3.8 0 6.9-3.1 6.9-6.9 0-3.8-3.1-6.9-6.9-6.9-3.8 0-6.9 3.1-6.9 6.9 0 3.8 3.1 6.9 6.9 6.9zm-0.8-11.4v-0.4c0-0.4 0.4-0.8 0.8-0.8 0.5 0 0.8 0.4 0.8 0.8v0.4c0.9 0.2 1.8 0.8 2.2 1.9 0.2 0.4 0 0.8-0.4 1-0.4 0.1-0.9 0-1-0.4-0.4-1-1.5-1.2-2.3-0.9-0.4 0.2-0.7 0.5-0.7 1 0 0.4 0.3 0.7 0.6 0.8 0.3 0.2 0.6 0.2 1 0.3 1.3 0.2 2.9 0.9 3.1 2.5 0.1 1.6-1.1 2.5-2.5 2.8v0.4c0 0.4-0.3 0.7-0.8 0.7-0.4 0-0.8-0.3-0.8-0.7v-0.4c-1.1-0.3-2.1-1-2.4-2.2-0.1-0.5 0.1-0.9 0.6-1 0.4-0.1 0.8 0.2 0.9 0.6 0.2 0.8 1 1.1 1.8 1.1 0.4 0 0.9-0.1 1.2-0.4 0.3-0.1 0.4-0.4 0.4-0.7-0.1-0.5-0.4-0.7-0.7-0.9-0.4-0.1-0.7-0.2-1.1-0.3-1.4-0.2-2.8-0.9-2.9-2.5 0-1.2 0.7-2.1 1.8-2.5q0.2-0.1 0.4-0.2z"/></g></svg>