<svg version="1.2" xmlns="http://www.w3.org/2000/svg" viewBox="0 0 51 51" width="51" height="51"><style>.a{fill:#b4924a}</style><path class="a" d="m17.5 7.7c0.2 0.2 0.4 0.4 0.7 0.4q0.2 0 0.3-0.1 2.8-1.3 5.8-1.5c0.4-0.1 0.8-0.4 0.8-0.8v-3.7q0-0.3-0.3-0.6-0.2-0.2-0.6-0.2c-2.8 0.2-5.6 0.9-8.2 2.2q-0.3 0.2-0.4 0.5-0.1 0.3 0.1 0.6zm6-4.8v2.1q-2.6 0.3-5 1.3l-1.1-1.8q2.9-1.3 6.1-1.6zm-17.3 29.6q0.1 0.3 0.4 0.4 0.2 0 0.3 0 0.2 0 0.4-0.1l3.1-1.8c0.4-0.2 0.5-0.7 0.4-1q-1.4-2.8-1.6-5.8c0-0.4-0.4-0.7-0.8-0.7h-3.6q-0.4 0-0.6 0.2-0.2 0.2-0.2 0.6c0.2 2.9 0.9 5.6 2.2 8.2zm1.5-7.5q0.3 2.6 1.3 5l-1.8 1q-1.3-2.8-1.6-6zm-3-2.7h3.7c0.4 0 0.8-0.3 0.8-0.7q0.3-3.1 1.6-5.8c0.1-0.4 0-0.8-0.3-1l-3.2-1.8q-0.3-0.2-0.7-0.1-0.3 0.1-0.4 0.4c-1.3 2.6-2 5.3-2.2 8.2q-0.1 0.3 0.2 0.6 0.2 0.2 0.5 0.2zm2.5-7.6l1.9 1.1q-1.1 2.4-1.4 5h-2.1q0.3-3.2 1.6-6.1zm41.9 10.2c-0.2-0.4-0.6-0.7-1.1-0.7h-0.8q0.1-0.6 0.1-1.3c0-5.6-2.1-10.8-5.9-14.9-3.8-4-8.9-6.4-14.4-6.7q-0.3-0.1-0.6 0.2-0.2 0.2-0.2 0.5v3.7c0 0.4 0.3 0.8 0.7 0.8 8.5 0.6 15.1 7.8 15.1 16.4q0 0.7 0 1.3h-0.5c-0.5 0-0.9 0.3-1.1 0.7-0.2 0.4-0.1 0.9 0.1 1.3l3.3 4.1c0.2 0.3 0.6 0.5 0.9 0.5 0.4 0 0.8-0.2 1-0.5l3.2-4.1c0.3-0.4 0.4-0.9 0.2-1.3zm-4.4 4.1l-2.5-3.2h0.5c0.4 0 0.7-0.3 0.8-0.7q0.1-1.1 0.1-2.2c0-4.6-1.7-8.9-4.8-12.3-2.9-3.1-6.8-5.1-11.1-5.6v-2.1c10.2 1.1 18 9.7 18 20q0 1-0.1 2.1 0 0.3 0.2 0.6 0.2 0.2 0.6 0.2h0.9zm-37-17l3.2 1.8q0.2 0.1 0.4 0.1c0.3 0 0.5-0.1 0.7-0.3q1.7-2.5 4.2-4.3c0.3-0.2 0.4-0.7 0.2-1l-1.8-3.2q-0.2-0.3-0.5-0.3-0.3-0.1-0.6 0.1c-2.4 1.6-4.4 3.6-6 6q-0.2 0.3-0.1 0.6 0 0.3 0.3 0.5zm6-5.4l1 1.9q-2.1 1.5-3.6 3.6l-1.8-1q1.8-2.6 4.4-4.5zm22.7 26.5l-7.5 4.4q-0.5 0.3-0.9 0.4 0.1-0.3 0.2-0.6c0.4-1.5-0.5-3.1-2-3.6q-0.1 0-0.1 0c-2.2-0.4-4.3-1.1-6-1.8q-0.9-0.3-1.7-0.5c-1.9-0.7-3.7 0.1-5.2 1l-5.5 3.1-0.4-0.8c-0.3-0.4-0.7-0.7-1.2-0.9-0.5-0.1-1 0-1.4 0.2l-2.1 1.2c-0.9 0.5-1.3 1.7-0.8 2.6l6.3 10.9c0.2 0.5 0.6 0.8 1.1 0.9q0.3 0.1 0.5 0.1 0.5 0 0.9-0.2l2.2-1.2c0.4-0.3 0.7-0.7 0.8-1.2 0.2-0.5 0.1-1-0.1-1.4l-0.6-1 1.1-0.7 9.6 2.6q0.8 0.2 1.6 0.2 1.7 0 3.1-0.9l13.7-8.4c1.3-0.8 1.7-2.8 0.8-4.2-0.4-0.7-2-2.7-6.4-0.2zm-24.3 13.6c0 0.1 0 0.1-0.1 0.2l-2.1 1.2c-0.1 0.1-0.2 0-0.3 0 0 0-0.1 0-0.2-0.1l-6.2-11c-0.1-0.2 0-0.4 0.1-0.4l2.1-1.2q0.1-0.1 0.2-0.1 0.1 0 0.1 0c0 0 0.1 0.1 0.2 0.2l6.2 11c0.1 0.1 0 0.2 0 0.2zm29-10.5l-13.6 8.4q-1.6 1-3.5 0.5l-9.9-2.7q-0.3-0.1-0.6 0.1l-1.4 0.8-3.6-6.4 5.5-3.2c1.2-0.7 2.6-1.3 4-0.9q0.6 0.3 1.6 0.6c1.7 0.6 3.9 1.4 6.2 1.8 0.7 0.3 1.1 1 0.9 1.7-0.2 0.9-1 1-1.6 0.9-1.1-0.2-2.2-0.5-3.3-0.8q-0.8-0.2-1.6-0.5c-0.4-0.1-0.9 0.2-1 0.6-0.1 0.4 0.2 0.8 0.6 0.9q0.8 0.3 1.6 0.5c1.1 0.3 3.4 0.9 3.4 0.9l1 0.1c1.4 0.3 2.7 0 3.8-0.6l7.6-4.4c2.1-1.3 3.7-1.4 4.3-0.4 0.4 0.7 0.2 1.7-0.4 2.1zm-35.1 1.2c0.1 0.4-0.2 0.8-0.6 0.8-0.4 0.1-0.8-0.2-0.9-0.6-0.1-0.4 0.2-0.8 0.6-0.9 0.5 0 0.8 0.3 0.9 0.7zm26.1-21.8c0-3.1-2.5-5.7-5.6-5.7-3.1 0-5.7 2.6-5.7 5.7 0 1.9 1 3.6 2.4 4.6-3.8 1.2-6.6 4.6-7.1 8.8q0 0.3 0.2 0.6 0.3 0.2 0.6 0.2h19.2q0.3 0 0.6-0.2 0.2-0.3 0.1-0.6c-0.4-4.2-3.3-7.6-7-8.8 1.4-1 2.3-2.7 2.3-4.6zm3.1 12.7h-17.4c0.9-4.1 4.5-7.1 8.7-7.1q0 0 0 0c4.2 0 7.8 3 8.7 7.1zm-8.7-8.6q0 0 0 0c-2.3 0-4.1-1.9-4.1-4.1 0-2.3 1.8-4.1 4.1-4.1 2.2 0 4.1 1.8 4.1 4.1 0 2.2-1.9 4.1-4.1 4.1q0 0 0 0z"/></svg>