<svg version="1.2" xmlns="http://www.w3.org/2000/svg" viewBox="0 0 51 51" width="51" height="51"><defs><clipPath clipPathUnits="userSpaceOnUse" id="cp1"><path d="m0.48 0.44h50v50h-50z"/></clipPath><linearGradient id="P" gradientUnits="userSpaceOnUse"/><linearGradient id="g1" x2="1" href="#P" gradientTransform="matrix(15.454,0,0,15.395,17.755,17.581)"><stop stop-color="#1956c1"/><stop offset="1" stop-color="#e2403b"/></linearGradient><linearGradient id="g2" x2="1" href="#P" gradientTransform="matrix(6.041,0,0,5.866,22.461,17.58)"><stop stop-color="#1956c1"/><stop offset="1" stop-color="#e2403b"/></linearGradient><linearGradient id="g3" x2="1" href="#P" gradientTransform="matrix(27.806,0,0,35.635,11.578,25.041)"><stop stop-color="#1956c1"/><stop offset="1" stop-color="#e2403b"/></linearGradient><linearGradient id="g4" x2="1" href="#P" gradientTransform="matrix(15.458,0,0,4.659,17.752,44.024)"><stop stop-color="#1956c1"/><stop offset="1" stop-color="#e2403b"/></linearGradient><linearGradient id="g5" x2="1" href="#P" gradientTransform="matrix(15.737,0,0,1.172,17.618,38.666)"><stop stop-color="#1956c1"/><stop offset="1" stop-color="#e2403b"/></linearGradient><linearGradient id="g6" x2="1" href="#P" gradientTransform="matrix(9.379,0,0,5.26,20.776,47.812)"><stop stop-color="#1956c1"/><stop offset="1" stop-color="#e2403b"/></linearGradient><linearGradient id="g7" x2="1" href="#P" gradientTransform="matrix(4.518,0,0,12.776,27.223,32.864)"><stop stop-color="#1956c1"/><stop offset="1" stop-color="#e2403b"/></linearGradient><linearGradient id="g8" x2="1" href="#P" gradientTransform="matrix(4.517,0,0,12.776,19.224,32.864)"><stop stop-color="#1956c1"/><stop offset="1" stop-color="#e2403b"/></linearGradient><linearGradient id="g9" x2="1" href="#P" gradientTransform="matrix(1.172,0,0,6.315,24.896,3.608)"><stop stop-color="#1956c1"/><stop offset="1" stop-color="#e2403b"/></linearGradient><linearGradient id="g10" x2="1" href="#P" gradientTransform="matrix(3.755,0,0,5.634,35.037,6.666)"><stop stop-color="#1956c1"/><stop offset="1" stop-color="#e2403b"/></linearGradient><linearGradient id="g11" x2="1" href="#P" gradientTransform="matrix(5.634,0,0,3.755,42.463,15.03)"><stop stop-color="#1956c1"/><stop offset="1" stop-color="#e2403b"/></linearGradient><linearGradient id="g12" x2="1" href="#P" gradientTransform="matrix(3.756,0,0,5.634,12.17,6.666)"><stop stop-color="#1956c1"/><stop offset="1" stop-color="#e2403b"/></linearGradient><linearGradient id="g13" x2="1" href="#P" gradientTransform="matrix(5.633,0,0,3.755,2.866,15.031)"><stop stop-color="#1956c1"/><stop offset="1" stop-color="#e2403b"/></linearGradient></defs><style>.a{fill:url(#g1)}.b{fill:url(#g2)}.c{fill:url(#g3)}.d{fill:url(#g4)}.e{fill:url(#g5)}.f{fill:url(#g6)}.g{fill:url(#g7)}.h{fill:url(#g8)}.i{fill:url(#g9)}.j{fill:url(#g10)}.k{fill:url(#g11)}.l{fill:url(#g12)}.m{fill:url(#g13)}</style><filter id="f0"><feFlood flood-color="#b4924a" flood-opacity="1" /><feBlend mode="normal" in2="SourceGraphic"/><feComposite in2="SourceAlpha" operator="in" /></filter><g clip-path="url(#cp1)" filter="url(#f0)"><path fill-rule="evenodd" class="a" d="m27 25.3c-4 0-3.6 0.3-3.6-1.8q-1.2-0.4-2.1-1.2c-2 1.1-1.4 1.3-3.5-2.2-0.4-0.6 0.7-1 1.4-1.4q-0.3-1.1 0-2.3c-2-1.1-1.9-0.5 0.2-3.9 0.4-0.7 1.1 0 1.9 0.4q0.9-0.8 2.1-1.2c0-2.2-0.4-1.8 3.6-1.8 0.8 0 0.6 1 0.6 1.8q1.2 0.4 2.1 1.2c1.9-1.1 1.4-1.3 3.4 2.1 0.4 0.7-0.6 1.1-1.3 1.4q0.2 1.2 0 2.3c2 1.1 1.8 0.6-0.2 4-0.4 0.6-1.2 0-1.9-0.4q-0.9 0.8-2.1 1.2c0 0.8 0.2 1.8-0.6 1.8zm-2.5-1.2h1.9c0-0.8-0.1-1.5 0.5-1.6 2.1-0.6 2.2-1.8 3-1.4l1 0.5 0.9-1.5c-1.9-1.1-1.1-0.6-1.1-2.5 0-1.9-0.8-1.4 1.1-2.5l-0.9-1.5c-0.7 0.3-1.3 0.8-1.7 0.4-1.6-1.5-2.8-1-2.8-1.9v-1h-1.9c0 0.7 0.2 1.5-0.4 1.6-2.2 0.6-2.3 1.8-3 1.4l-1-0.6-0.9 1.6c1.9 1.1 1 0.6 1 2.5 0 1.9 0.9 1.4-1 2.5l0.9 1.5c0.7-0.4 1.2-0.9 1.7-0.4 1.6 1.5 2.7 0.9 2.7 1.8v1.1z"/><path fill-rule="evenodd" class="b" d="m25.5 20.5c-1.7 0-3-1.3-3-2.9 0-1.6 1.3-3 3-3 1.6 0 3 1.4 3 3 0 1.6-1.4 2.9-3 2.9zm0-4.7c-2.5 0-2.5 3.5 0 3.5 2.4 0 2.4-3.5 0-3.5z"/><path fill-rule="evenodd" class="c" d="m32.6 42.9h-14.3c-0.3 0-0.5-0.3-0.5-0.6 0-14.7-6.2-12-6.2-21.2 0-7.6 6.2-13.9 13.9-13.9 7.6 0 13.9 6.3 13.9 13.9 0 9.2-6.2 6.5-6.2 21.2 0 0.3-0.3 0.6-0.6 0.6zm-13.7-1.2h13.1c0.2-14.4 6.2-12 6.2-20.6 0-7-5.7-12.7-12.7-12.7-7 0-12.7 5.7-12.7 12.7 0 8.6 6 6.2 6.1 20.6z"/><path fill-rule="evenodd" class="d" d="m32.6 46.4h-14.3c-0.3 0-0.5-0.3-0.5-0.6v-3.5c0-0.8 1.1-0.8 1.1 0v2.9h13.1v-2.9c0-0.8 1.2-0.8 1.2 0v3.5c0 0.3-0.3 0.6-0.6 0.6z"/><path fill-rule="evenodd" class="e" d="m32.8 39.3h-14.6c-0.8 0-0.8-1.2 0-1.2h14.6c0.7 0 0.7 1.2 0 1.2z"/><path fill-rule="evenodd" class="f" d="m25.5 50.4c-4.2 0-5.7-5.2-4.1-5.2 0.3 0 0.6 0.2 0.6 0.6 0 1.9 1.6 3.5 3.5 3.5 1.9 0 3.5-1.6 3.5-3.5 0-0.8 1.2-0.8 1.2 0 0 2.5-2.1 4.6-4.7 4.6z"/><path fill-rule="evenodd" class="g" d="m27.8 39.3c-0.3 0-0.6-0.3-0.6-0.6v-9.7c0-0.2 0.1-0.4 0.3-0.5l3.4-1.9c0.6-0.4 1.2 0.6 0.5 1l-3 1.7v9.4c0 0.3-0.3 0.6-0.6 0.6z"/><path fill-rule="evenodd" class="h" d="m23.2 39.3c-0.4 0-0.6-0.3-0.6-0.6v-9.4l-3.1-1.7c-0.6-0.4-0.1-1.4 0.6-1l3.3 1.9c0.2 0.1 0.3 0.3 0.3 0.5v9.7c0 0.3-0.2 0.6-0.5 0.6z"/><path fill-rule="evenodd" class="i" d="m25.5 6.8c-0.3 0-0.6-0.3-0.6-0.6v-5.2c0-0.7 1.2-0.7 1.2 0v5.2c0 0.3-0.3 0.6-0.6 0.6z"/><path fill-rule="evenodd" class="j" d="m35.6 9.5c-0.4 0-0.7-0.5-0.5-0.9l2.6-4.5c0.4-0.6 1.4 0 1 0.6l-2.6 4.5c-0.1 0.2-0.3 0.3-0.5 0.3z"/><path fill-rule="evenodd" class="k" d="m43 16.9c-0.5 0-0.8-0.8-0.2-1.1l4.4-2.6c0.7-0.3 1.3 0.7 0.6 1.1-0.6 0.3-4.4 2.6-4.8 2.6z"/><path fill-rule="evenodd" class="l" d="m15.3 9.5c-0.2 0-0.4-0.1-0.5-0.3l-2.5-4.5c-0.4-0.6 0.6-1.2 1-0.6l2.5 4.5c0.3 0.4 0 0.9-0.5 0.9z"/><path fill-rule="evenodd" class="m" d="m7.9 16.9c-0.3 0-4.1-2.3-4.7-2.6-0.7-0.4-0.1-1.4 0.5-1.1l4.5 2.6c0.5 0.3 0.3 1.1-0.3 1.1z"/></g></svg>