<svg version="1.2" xmlns="http://www.w3.org/2000/svg" viewBox="0 0 51 51" width="51" height="51"><style>.a{fill:#b4924a}</style><path fill-rule="evenodd" class="a" d="m25.5 11.8c7.5 0 13.6 6.1 13.6 13.6 0 7.6-6.1 13.7-13.6 13.7-7.5 0-13.6-6.1-13.6-13.7 0-7.5 6.1-13.6 13.6-13.6zm9.4 21.2c1.6-2.1 2.6-4.7 2.6-7.6 0-6.6-5.4-12-12-12-6.7 0-12.1 5.4-12.1 12 0 2.9 1 5.5 2.7 7.6 0.9-3.1 3.2-5.5 6.2-6.6-1.3-0.9-2.1-2.5-2.1-4.3 0-2.9 2.4-5.3 5.3-5.3 2.9 0 5.3 2.4 5.3 5.3 0 1.8-0.8 3.4-2.2 4.3 3.1 1.1 5.4 3.5 6.3 6.6zm-17.5 1.4c2.1 1.9 5 3.1 8.1 3.1 3.1 0 5.9-1.2 8.1-3.1-0.6-3.9-4-6.9-8.1-6.9-4.1 0-7.5 3-8.1 6.9zm8.1-8.5c2 0 3.7-1.7 3.7-3.8 0-2-1.7-3.7-3.7-3.7-2.1 0-3.8 1.7-3.8 3.7 0 2.1 1.7 3.8 3.8 3.8zm22.7 0.3h-4.5l0.6 0.8c0.3 0.3 0.3 0.8-0.1 1.1-0.3 0.3-0.8 0.2-1.1-0.1l-1.7-2.1c-0.2-0.2-0.2-0.7 0-1l1.7-2c0.3-0.3 0.8-0.4 1.1-0.1 0.4 0.3 0.4 0.8 0.1 1.1l-0.6 0.8h5.3c0.4 0 0.8 0.3 0.8 0.7 0 11.9-8.4 21.7-19.6 23.9-0.4 0.1-0.9-0.2-0.9-0.6-0.1-0.4 0.2-0.9 0.6-0.9 10.2-2 18-10.9 18.3-21.6zm-23.5-19v-5.3c0-0.4 0.3-0.8 0.8-0.8 11.8 0 21.6 8.5 23.8 19.6 0.1 0.5-0.2 0.9-0.6 1-0.4 0-0.8-0.2-0.9-0.7-2-10.2-10.8-17.9-21.5-18.3v4.5l0.7-0.6c0.3-0.3 0.8-0.2 1.1 0.1 0.3 0.3 0.3 0.8-0.1 1.1l-2 1.7c-0.3 0.2-0.7 0.2-1 0l-2.1-1.7c-0.3-0.3-0.3-0.8-0.1-1.1 0.3-0.3 0.8-0.4 1.2-0.1zm-22 17.4h4.5l-0.6-0.7c-0.3-0.3-0.3-0.8 0.1-1.1 0.3-0.3 0.8-0.3 1.1 0.1l1.7 2c0.2 0.3 0.2 0.7 0 1l-1.7 2.1c-0.3 0.3-0.8 0.3-1.1 0-0.4-0.2-0.4-0.7-0.1-1.1l0.6-0.7h-5.3c-0.4 0-0.8-0.4-0.8-0.8 0-11.8 8.5-21.6 19.6-23.8 0.5-0.1 0.9 0.2 1 0.6 0 0.4-0.2 0.8-0.7 0.9-10.2 2-17.9 10.8-18.3 21.5zm22 23.5v-4.5l-0.8 0.7c-0.3 0.2-0.8 0.2-1.1-0.1-0.3-0.4-0.2-0.9 0.1-1.1l2-1.7c0.3-0.3 0.8-0.3 1 0l2.1 1.7c0.3 0.2 0.4 0.7 0.1 1.1-0.3 0.3-0.8 0.3-1.1 0.1l-0.8-0.7v5.3c0 0.5-0.3 0.8-0.8 0.8-11.8 0-21.6-8.4-23.8-19.6-0.1-0.4 0.2-0.8 0.6-0.9 0.4-0.1 0.8 0.2 0.9 0.6 2 10.2 10.9 18 21.6 18.3z"/></svg>