<svg version="1.2" xmlns="http://www.w3.org/2000/svg" viewBox="0 0 50 51" width="50" height="51"><style>.a{fill:#b4924a}</style><path class="a" d="m14.5 25.3c1 0 1.8-0.5 2.4-1.2l5.6 2.6q-0.1 0.3-0.1 0.5c0 1.8 1.4 3.2 3.2 3.2 1.7 0 3.1-1.4 3.1-3.2q0-0.8-0.4-1.4l10.2-9.2-0.2 2c0 0.4 0.3 0.8 0.8 0.8q0 0 0 0c0.4 0 0.8-0.3 0.8-0.7l0.3-4c0-0.2 0-0.5-0.2-0.6-0.2-0.2-0.4-0.3-0.6-0.3l-4.1 0.5c-0.4 0.1-0.7 0.5-0.6 0.9 0 0.4 0.4 0.7 0.8 0.7l1.7-0.2-9.9 8.9c-0.5-0.3-1.1-0.5-1.7-0.5-1 0-1.9 0.5-2.5 1.2l-5.5-2.6q0-0.3 0-0.6c0-1.7-1.4-3.1-3.1-3.1-1.7 0-3.1 1.4-3.1 3.1q0 0.5 0.1 0.9l-10.3 5.9c-0.4 0.2-0.5 0.7-0.3 1 0.1 0.3 0.4 0.4 0.7 0.4q0.2 0 0.4-0.1l10.3-5.9c0.5 0.6 1.3 1 2.2 1zm11.1 0.4c0.8 0 1.5 0.7 1.5 1.5 0 0.9-0.7 1.6-1.5 1.6-0.9 0-1.6-0.7-1.6-1.6 0-0.8 0.7-1.5 1.6-1.5zm-11.1-5.1c0.9 0 1.6 0.7 1.6 1.5 0 0.9-0.7 1.6-1.6 1.6-0.9 0-1.6-0.7-1.6-1.6 0-0.8 0.7-1.5 1.6-1.5zm23.7 3.8c-6.1 0-11 5-11 11 0 6.1 4.9 11.1 11 11.1 6.1 0 11-5 11-11.1 0-6-4.9-11-11-11zm0 20.5c-5.2 0-9.5-4.2-9.5-9.5 0-5.2 4.3-9.4 9.5-9.4 5.2 0 9.5 4.2 9.5 9.4 0 5.3-4.3 9.5-9.5 9.5zm0-18.1c-4.8 0-8.6 3.9-8.6 8.6 0 4.8 3.8 8.7 8.6 8.7 4.7 0 8.6-3.9 8.6-8.7 0-4.7-3.9-8.6-8.6-8.6zm0 15.7c-3.9 0-7.1-3.2-7.1-7.1 0-3.8 3.2-7 7.1-7 3.9 0 7 3.2 7 7 0 3.9-3.1 7.1-7 7.1zm3.3-5.3c0 0.7-0.1 1.3-0.6 1.8-0.4 0.5-1.1 0.9-1.9 1v0.4c0 0.4-0.4 0.8-0.8 0.8-0.4 0-0.8-0.4-0.8-0.8v-0.4c-1.2-0.3-2.2-1.1-2.5-2.3-0.1-0.4 0.2-0.8 0.6-0.9 0.4-0.1 0.8 0.1 0.9 0.6 0.3 0.8 1.2 1.1 1.9 1.1 0.6 0 1.2-0.2 1.4-0.5q0.3-0.3 0.2-0.6c0-0.4-0.3-1-1.8-1.2-2.4-0.4-2.9-1.6-2.9-2.6-0.1-1.3 0.8-2.4 2.2-2.7v-0.4c0-0.4 0.4-0.8 0.8-0.8 0.4 0 0.8 0.4 0.8 0.8v0.4c0.9 0.2 1.8 0.8 2.2 1.9 0.2 0.4 0 0.8-0.4 1-0.4 0.2-0.9 0-1-0.4-0.4-0.9-1.3-1.1-2-1-0.2 0.1-1.1 0.3-1.1 1.2 0 0.2 0.1 0.8 1.6 1q2.9 0.5 3.2 2.6zm-22.7-0.1c1.5-1.1 2.6-2.9 2.6-4.9 0-3.3-2.7-6-6-6-3.3 0-6 2.7-6 6 0 2 1.1 3.8 2.6 4.9-4 1.3-7.1 4.9-7.6 9.3q0 0.4 0.2 0.6 0.3 0.3 0.6 0.3h20.4q0.3 0 0.6-0.3 0.2-0.2 0.2-0.6c-0.5-4.4-3.6-8-7.6-9.3zm-7.8-4.9c0-2.4 2-4.4 4.4-4.4 2.4 0 4.4 2 4.4 4.4 0 2.4-2 4.4-4.4 4.4-2.4 0-4.4-2-4.4-4.4zm-4.9 13.5c0.9-4.4 4.7-7.6 9.3-7.6 4.5 0 8.4 3.2 9.3 7.6zm12.2-27.9h0.7v2.7c0 0.3 0.2 0.6 0.5 0.7q0.1 0.1 0.3 0.1 0.3 0 0.5-0.3l3.2-3.2h7.4c1.4 0 2.5-1.2 2.5-2.6v-8.6c0-1.4-1.1-2.5-2.5-2.5h-12.6c-1.4 0-2.5 1.1-2.5 2.5v8.6c0 1.4 1.1 2.6 2.5 2.6zm-0.9-11.2c0-0.5 0.4-0.9 0.9-0.9h12.6c0.6 0 1 0.4 1 0.9v8.6c0 0.6-0.4 1-1 1h-7.7q-0.4 0-0.6 0.2l-2 2.1v-1.5c0-0.5-0.4-0.8-0.8-0.8h-1.5c-0.5 0-0.9-0.4-0.9-1zm2.1 1.3c0-0.5 0.3-0.8 0.8-0.8h8.7c0.4 0 0.8 0.3 0.8 0.8 0 0.4-0.4 0.7-0.8 0.7h-8.7c-0.5 0-0.8-0.3-0.8-0.7zm0 3.1c0-0.5 0.3-0.8 0.8-0.8h8.7c0.4 0 0.8 0.3 0.8 0.8 0 0.4-0.4 0.7-0.8 0.7h-8.7c-0.5 0-0.8-0.3-0.8-0.7zm0 3.1c0-0.5 0.3-0.8 0.8-0.8h8.7c0.4 0 0.8 0.3 0.8 0.8 0 0.4-0.4 0.8-0.8 0.8h-8.7c-0.5 0-0.8-0.4-0.8-0.8z"/></svg>