<svg version="1.2" xmlns="http://www.w3.org/2000/svg" viewBox="0 0 50 51" width="50" height="51"><defs><clipPath clipPathUnits="userSpaceOnUse" id="cp1"><path d="m0 0.89h50v50h-50z"/></clipPath><linearGradient id="P" gradientUnits="userSpaceOnUse"/><linearGradient id="g1" x2="1" href="#P" gradientTransform="matrix(23.436,0,0,35.159,26.564,18.467)"><stop stop-color="#1956c1"/><stop offset="1" stop-color="#e2403b"/></linearGradient><linearGradient id="g2" x2="1" href="#P" gradientTransform="matrix(15.679,0,0,16.411,23.384,35.268)"><stop stop-color="#1956c1"/><stop offset="1" stop-color="#e2403b"/></linearGradient><linearGradient id="g3" x2="1" href="#P" gradientTransform="matrix(28.125,0,0,13.427,0,44.177)"><stop stop-color="#1956c1"/><stop offset="1" stop-color="#e2403b"/></linearGradient><linearGradient id="g4" x2="1" href="#P" gradientTransform="matrix(15.626,0,0,17.187,6.251,28.235)"><stop stop-color="#1956c1"/><stop offset="1" stop-color="#e2403b"/></linearGradient><linearGradient id="g5" x2="1" href="#P" gradientTransform="matrix(15.625,0,0,15.625,30.469,12.219)"><stop stop-color="#1956c1"/><stop offset="1" stop-color="#e2403b"/></linearGradient><linearGradient id="g6" x2="1" href="#P" gradientTransform="matrix(6.25,0,0,6.25,35.156,12.219)"><stop stop-color="#1956c1"/><stop offset="1" stop-color="#e2403b"/></linearGradient><linearGradient id="g7" x2="1" href="#P" gradientTransform="matrix(3.587,0,0,4.929,18.288,16.391)"><stop stop-color="#1956c1"/><stop offset="1" stop-color="#e2403b"/></linearGradient><linearGradient id="g8" x2="1" href="#P" gradientTransform="matrix(3.587,0,0,4.929,5.469,16.391)"><stop stop-color="#1956c1"/><stop offset="1" stop-color="#e2403b"/></linearGradient><linearGradient id="g9" x2="1" href="#P" gradientTransform="matrix(1.563,0,0,5.446,12.891,15.333)"><stop stop-color="#1956c1"/><stop offset="1" stop-color="#e2403b"/></linearGradient></defs><style>.a{fill:url(#g1)}.b{fill:url(#g2)}.c{fill:url(#g3)}.d{fill:url(#g4)}.e{fill:url(#g5)}.f{fill:url(#g6)}.g{fill:url(#g7)}.h{fill:url(#g8)}.i{fill:url(#g9)}</style><filter id="f0"><feFlood flood-color="#b4924a" flood-opacity="1" /><feBlend mode="normal" in2="SourceGraphic"/><feComposite in2="SourceAlpha" operator="in" /></filter><g clip-path="url(#cp1)" filter="url(#f0)"><path class="a" d="m50 11.9c0-1.4-0.3-2.9-0.9-4.2-0.6-1.4-1.4-2.6-2.5-3.6-1.2-1.1-2.7-2-4.2-2.5-1.6-0.6-3.2-0.8-4.9-0.7-5.8 0.4-10.6 4.8-10.9 10.3-0.2 2.8 0.7 5.5 2.5 7.6 1.7 1.8 2.8 4.1 3.3 6.5-0.5 0.1-0.9 0.4-1.1 0.9-0.3 0.4-0.5 0.9-0.4 1.4 0 0.5 0.2 0.9 0.5 1.3 0.3 0.4 0.7 0.7 1.2 0.8q-0.2 0.5-0.2 1.1 0.1 0.5 0.3 1 0.3 0.4 0.8 0.7 0.4 0.3 0.9 0.4c0.2 0.9 0.7 1.7 1.4 2.3 0.7 0.5 1.6 0.8 2.5 0.8 0.9 0 1.8-0.3 2.5-0.8 0.7-0.6 1.1-1.4 1.3-2.3q0.5-0.1 1-0.4 0.4-0.3 0.7-0.7 0.3-0.5 0.3-1 0.1-0.6-0.1-1.1c0.4-0.1 0.9-0.4 1.2-0.8 0.3-0.4 0.5-0.8 0.5-1.3 0-0.5-0.1-1-0.4-1.4-0.2-0.4-0.6-0.7-1.1-0.9 0.6-2.5 1.8-4.8 3.4-6.7 1.5-1.9 2.4-4.2 2.4-6.7zm-11.7 22.6c-0.5 0-1-0.2-1.4-0.4-0.4-0.3-0.7-0.7-0.8-1.2h4.4c-0.2 0.5-0.5 0.9-0.9 1.2-0.4 0.2-0.8 0.4-1.3 0.4zm3.5-3.1h-7q-0.4 0-0.6-0.3-0.2-0.2-0.2-0.5 0-0.3 0.2-0.6 0.2-0.2 0.6-0.2h7q0.3 0 0.5 0.2 0.3 0.3 0.3 0.6 0 0.3-0.3 0.5-0.2 0.3-0.5 0.3zm1.6-3.2h-10.2q-0.3 0-0.5-0.2-0.3-0.2-0.3-0.5 0-0.4 0.3-0.6 0.2-0.2 0.5-0.2h10.2q0.3 0 0.5 0.2 0.2 0.2 0.2 0.6 0 0.3-0.2 0.5-0.2 0.2-0.5 0.2zm-0.7-3.1h-1.7v-1.6q0-0.3-0.2-0.5-0.2-0.2-0.6-0.2-0.3 0-0.5 0.2-0.2 0.2-0.2 0.5v1.6h-2.4v-1.6q0-0.3-0.2-0.5-0.3-0.2-0.6-0.2-0.3 0-0.5 0.2-0.2 0.2-0.3 0.5v1.6h-1.5c-0.6-2.7-1.8-5.2-3.7-7.3-1.5-1.8-2.3-4.1-2.2-6.5 0.4-4.7 4.4-8.5 9.5-8.8 1.5-0.1 2.9 0.1 4.3 0.6 1.3 0.4 2.5 1.2 3.6 2.2 0.9 0.8 1.7 1.8 2.2 3 0.5 1.1 0.7 2.4 0.7 3.6 0 2.1-0.7 4.1-2 5.7-1.8 2.2-3.1 4.8-3.7 7.5z"/><path class="b" d="m37.5 37.5v1.1q0 0.6-0.3 1.2-0.2 0.7-0.7 1.1-0.5 0.5-1.1 0.8-0.6 0.2-1.3 0.2-0.6 0-1.2-0.2-0.7-0.3-1.1-0.8-0.5-0.4-0.8-1.1-0.2-0.6-0.2-1.2v-4.5c0-1.9-0.8-3.7-2.1-5-1.3-1.3-3.1-2-4.9-2h-0.4q0.1 0.7 0 1.5h0.4c1.4 0 2.8 0.6 3.8 1.6 1.1 1.1 1.6 2.4 1.6 3.9v4.5q0 0.9 0.4 1.8 0.4 0.9 1.1 1.6 0.7 0.7 1.6 1.1 0.9 0.4 1.8 0.4 1 0 1.9-0.4 0.9-0.4 1.6-1.1 0.7-0.7 1.1-1.6 0.4-0.9 0.4-1.8v-1.1q-0.8 0.2-1.6 0z"/><path class="c" d="m26.9 41.4c-0.1-0.5-0.4-1.1-0.8-1.5-0.4-0.4-0.9-0.7-1.4-0.8l-5.9-1q-0.2-0.1-0.4-0.2-0.2-0.2-0.3-0.4-0.8 0.3-1.5 0.5 0.2 0.5 0.6 0.9l-3.1 5-3.2-5q0.4-0.4 0.6-0.9-0.7-0.2-1.4-0.5-0.1 0.2-0.3 0.4-0.2 0.1-0.5 0.2l-5.8 1c-0.6 0.1-1.1 0.4-1.5 0.8-0.4 0.4-0.7 1-0.7 1.5l-1.3 8.6q0 0.2 0 0.3 0.1 0.2 0.2 0.3 0.1 0.1 0.3 0.2 0.1 0.1 0.3 0.1h26.5q0.2 0 0.4-0.1 0.1-0.1 0.2-0.2 0.1-0.1 0.2-0.3 0-0.1 0-0.3zm-13.6 7.9h-11.6l1.2-7.7q0-0.4 0.3-0.6 0.2-0.3 0.6-0.4l5.8-1 3.7 6zm1.6 0v-3.7l3.8-6 5.7 1.1q0.4 0 0.7 0.3 0.2 0.3 0.3 0.6l1.1 7.7z"/><path class="d" d="m19.9 22.1q-0.3-0.2-0.6-0.3-0.3-0.1-0.5-0.3c-1.4-1.3-2.9-1.9-5-1.9-2.8 0.1-4.8 1.2-6.3 3.4-0.9 1.4-1.3 3-1.2 4.6q0 1.1 0.2 2.2 0 0 0 0c0.2 1.9 1 3.7 2.4 5 1.4 1.3 3.3 2 5.2 2 1.9 0 3.7-0.7 5.1-2 1.4-1.3 2.3-3.1 2.4-5 0.1-0.5 0.9-3.9-0.9-6.7q-0.3-0.5-0.8-1zm-5.8 13.2c-1.5 0-2.9-0.6-4.1-1.6-1.1-1-1.8-2.4-1.9-3.8q0.5-0.6 1-1.3c0.6-1.1 1.2-1.5 1.9-1.5 1-0.1 1.9 0.2 2.9 0.1q1.5-0.1 2.8-0.7 1.9 1.5 3.3 3.4c-0.1 1.4-0.8 2.8-1.9 3.8-1.1 1-2.6 1.6-4 1.6zm6.2-7.5q-1.3-1.5-2.8-2.7-0.3-0.2-0.6-0.2-0.3-0.1-0.6 0.1-1.2 0.6-2.5 0.7c-1 0.1-2-0.2-2.9-0.2-1.5 0.1-2.4 1.1-3.1 2.2 0.1-0.1 0-0.3 0-0.5 0-1.2 0.4-2.3 1-3.3 1.2-1.8 2.8-2.7 5-2.7 1.7 0 2.8 0.4 3.9 1.4 0.5 0.6 1.3 0.7 1.7 1.4 0.7 1.1 1 2.5 0.9 3.8z"/><path class="e" d="m44.6 9.6c0.3-0.4 0.3-0.8 0.3-1.3-0.1-0.4-0.3-0.8-0.6-1.1l-1-1c-0.3-0.3-0.7-0.5-1.1-0.6-0.5 0-0.9 0-1.3 0.3-0.1-0.5-0.4-0.8-0.7-1.1-0.4-0.3-0.8-0.4-1.2-0.4h-1.4c-0.4 0-0.9 0.1-1.2 0.4-0.4 0.3-0.6 0.6-0.8 1.1-0.3-0.3-0.8-0.3-1.2-0.3-0.4 0.1-0.8 0.3-1.2 0.6l-0.9 1c-0.3 0.3-0.5 0.7-0.6 1.1-0.1 0.5 0 0.9 0.2 1.3-0.4 0.1-0.8 0.4-1 0.7-0.3 0.4-0.4 0.8-0.4 1.2v1.4c0 0.4 0.1 0.9 0.4 1.2 0.2 0.4 0.6 0.6 1 0.8-0.2 0.3-0.3 0.8-0.2 1.2 0.1 0.4 0.3 0.8 0.6 1.2l0.9 0.9c0.4 0.3 0.8 0.5 1.2 0.6 0.4 0.1 0.9 0 1.2-0.2 0.2 0.4 0.4 0.8 0.8 1 0.3 0.3 0.8 0.4 1.2 0.4h1.4c0.4 0 0.8-0.1 1.2-0.4 0.3-0.2 0.6-0.6 0.7-1 0.4 0.2 0.8 0.3 1.3 0.2 0.4-0.1 0.8-0.3 1.1-0.6l1-0.9c0.3-0.4 0.5-0.8 0.6-1.2 0-0.4 0-0.9-0.3-1.2 0.5-0.2 0.8-0.4 1.1-0.8 0.3-0.3 0.4-0.8 0.4-1.2v-1.4c0-0.4-0.1-0.8-0.4-1.2-0.3-0.3-0.6-0.6-1.1-0.7zm-0.1 3.3q0 0.2-0.1 0.3-0.1 0.2-0.3 0.2h-0.9q-0.2 0.8-0.6 1.5l0.6 0.6q0.1 0.1 0.1 0.3 0 0.2-0.1 0.3l-1 1q-0.1 0.1-0.1 0.1-0.1 0.1-0.2 0.1-0.1 0-0.2-0.1-0.1 0-0.1-0.1l-0.6-0.6q-0.7 0.5-1.6 0.7v0.8q0 0.2-0.1 0.3-0.1 0.2-0.3 0.2h-1.4q-0.1 0-0.2-0.1-0.1 0-0.1-0.1-0.1 0-0.1-0.1-0.1-0.1-0.1-0.2v-0.8q-0.8-0.2-1.5-0.7l-0.6 0.6q-0.1 0.1-0.1 0.1-0.1 0.1-0.2 0.1-0.1 0-0.2-0.1-0.1 0-0.1-0.1l-1-1q-0.2-0.1-0.2-0.3 0-0.2 0.2-0.3l0.6-0.6q-0.5-0.7-0.7-1.5h-0.8q-0.2 0-0.3-0.2-0.2-0.1-0.2-0.3v-1.4q0-0.1 0.1-0.2 0 0 0.1-0.1 0-0.1 0.1-0.1 0.1 0 0.2 0h0.8q0.2-0.9 0.7-1.6l-0.6-0.6q-0.2-0.1-0.2-0.3 0-0.2 0.2-0.3l1-1q0-0.1 0.1-0.1 0.1 0 0.2 0 0.1 0 0.2 0 0 0 0.1 0.1l0.6 0.6q0.7-0.4 1.5-0.6v-0.9q0-0.2 0.2-0.3 0.1-0.1 0.3-0.1h1.4q0.2 0 0.3 0.1 0.1 0.1 0.1 0.3v0.9q0.9 0.2 1.6 0.6l0.6-0.6q0-0.1 0.1-0.1 0.1 0 0.2 0 0.1 0 0.2 0 0 0 0.1 0.1l1 1q0.1 0.1 0.1 0.3 0 0.2-0.1 0.3l-0.6 0.6q0.4 0.7 0.6 1.6h0.9q0.1 0 0.1 0 0.1 0 0.2 0.1 0.1 0.1 0.1 0.1 0 0.1 0 0.2z"/><path class="f" d="m38.3 9.1c-0.6 0-1.2 0.2-1.8 0.5-0.5 0.4-0.9 0.9-1.1 1.4-0.2 0.6-0.3 1.2-0.2 1.8 0.1 0.6 0.4 1.2 0.9 1.6 0.4 0.5 1 0.8 1.6 0.9 0.6 0.1 1.2 0 1.8-0.2 0.5-0.2 1-0.6 1.4-1.1 0.3-0.6 0.5-1.2 0.5-1.8 0-0.8-0.3-1.6-0.9-2.2-0.6-0.6-1.4-0.9-2.2-0.9zm0 4.7q-0.5 0-0.9-0.3-0.4-0.2-0.6-0.7-0.1-0.4-0.1-0.9 0.1-0.4 0.5-0.8 0.3-0.3 0.8-0.4 0.4-0.1 0.9 0.1 0.4 0.2 0.7 0.6 0.2 0.3 0.2 0.8c0 0.4-0.1 0.8-0.4 1.1-0.3 0.3-0.7 0.5-1.1 0.5z"/><path class="g" d="m18.7 18.7q0.2 0.2 0.6 0.1 0.3 0 0.4-0.3l2.1-3.4q0-0.1 0.1-0.3 0-0.1 0-0.3-0.1-0.1-0.2-0.3-0.1-0.1-0.2-0.2-0.1 0-0.3-0.1-0.1 0-0.3 0-0.1 0.1-0.3 0.2-0.1 0.1-0.2 0.2l-2 3.4q-0.2 0.3-0.1 0.6 0.1 0.3 0.4 0.4z"/><path class="h" d="m7.6 18.5q0.2 0.3 0.5 0.3 0.3 0.1 0.6-0.1 0.2-0.1 0.3-0.4 0.1-0.3-0.1-0.6l-2-3.4q-0.1-0.1-0.2-0.2-0.1-0.1-0.3-0.2-0.1 0-0.3 0-0.1 0.1-0.3 0.1-0.1 0.1-0.2 0.2-0.1 0.2-0.1 0.3 0 0.2 0 0.3 0 0.2 0.1 0.3z"/><path class="i" d="m13.7 18.1q0.3 0 0.5-0.3 0.2-0.2 0.3-0.5v-3.9q-0.1-0.3-0.3-0.6-0.2-0.2-0.5-0.2-0.3 0-0.6 0.2-0.2 0.3-0.2 0.6v3.9q0 0.3 0.2 0.5 0.3 0.3 0.6 0.3z"/></g></svg>