<svg version="1.2" xmlns="http://www.w3.org/2000/svg" viewBox="0 0 50 51" width="50" height="51"><defs><clipPath clipPathUnits="userSpaceOnUse" id="cp1"><path d="m0 0.89h50v50h-50z"/></clipPath><linearGradient id="P" gradientUnits="userSpaceOnUse"/><linearGradient id="g1" x2="1" href="#P" gradientTransform="matrix(19.355,0,0,13.012,19.355,7.397)"><stop stop-color="#1956c1"/><stop offset="1" stop-color="#e2403b"/></linearGradient><linearGradient id="g2" x2="1" href="#P" gradientTransform="matrix(1.613,0,0,1.613,22.581,4.923)"><stop stop-color="#1956c1"/><stop offset="1" stop-color="#e2403b"/></linearGradient><linearGradient id="g3" x2="1" href="#P" gradientTransform="matrix(6.452,0,0,1.613,25.807,4.923)"><stop stop-color="#1956c1"/><stop offset="1" stop-color="#e2403b"/></linearGradient><linearGradient id="g4" x2="1" href="#P" gradientTransform="matrix(1.613,0,0,1.613,33.871,4.923)"><stop stop-color="#1956c1"/><stop offset="1" stop-color="#e2403b"/></linearGradient><linearGradient id="g5" x2="1" href="#P" gradientTransform="matrix(50,0,0,37.903,0,31.939)"><stop stop-color="#1956c1"/><stop offset="1" stop-color="#e2403b"/></linearGradient></defs><style>.a{fill:url(#g1)}.b{fill:url(#g2)}.c{fill:url(#g3)}.d{fill:url(#g4)}.e{fill:url(#g5)}</style><filter id="f0"><feFlood flood-color="#b4924a" flood-opacity="1" /><feBlend mode="normal" in2="SourceGraphic"/><feComposite in2="SourceAlpha" operator="in" /></filter><g clip-path="url(#cp1)" filter="url(#f0)"><path class="a" d="m25 13.9l5.9-4.9h7.8v-8.1h-19.3v8.1h5.6zm-4-6.6v-4.8h16.1v4.8h-6.7l-3.8 3.1v-3.1z"/><path class="b" d="m22.6 4.1h1.6v1.6h-1.6z"/><path class="c" d="m25.8 4.1h6.5v1.6h-6.5z"/><path class="d" d="m33.9 4.1h1.6v1.6h-1.6z"/><path class="e" d="m41.1 49.3l-0.7-6.6c2.7-0.4 4.8-2.7 4.8-5.5v-10.5h-3.3v-1.1c0-1.1-0.6-2.1-1.5-2.6 0.9-0.9 1.5-2.2 1.5-3.6v-1.6c0-2.6-2.1-4.8-4.8-4.8-2.7 0-4.8 2.2-4.8 4.8v1.6c0 2.1 1.3 3.9 3.1 4.6l-4.3 4.3h-4.5c-0.1-1.3-1-2.5-2.3-2.9l-3.3-0.9v-1.5c1-0.9 1.6-2.1 1.6-3.6v-1.6c0-2.6-2.2-4.8-4.9-4.8-2.6 0-4.8 2.2-4.8 4.8v1.6c0 1.5 0.6 2.7 1.6 3.6v1.5l-3.3 0.9c-1.4 0.4-2.3 1.7-2.3 3.1v3h-3.3v4.9h1.7v12.9h-7.3v1.6h50v-1.6zm-7.2-12.9v-3.7l5.7-5.7c0.4-0.5 0.7-1 0.7-1.6q0.1 0.1 0.1 0.2v10c0 1.3-1.1 2.4-2.4 2.4h-6.5v-1.6zm-2.4 6.4h4.1l0.6 6.5h-4.7zm5.7 0h1.6l0.7 6.4h-1.6zm4.7-7.2v-7.3h1.6v8.9c0 2.2-1.8 4-4 4h-8.1v-1.6h6.5c2.2 0 4-1.8 4-4zm-8.1-16.2v-1.6c0-1.7 1.5-3.2 3.3-3.2 1.7 0 3.2 1.5 3.2 3.2v1.6c0 1.8-1.5 3.3-3.2 3.3-1.8 0-3.3-1.5-3.3-3.3zm-2 10.5l5.3-5.4c0.2-0.1 0.4-0.2 0.7-0.2 0.5 0 0.9 0.4 0.9 0.9 0 0.2-0.1 0.5-0.3 0.6l-5.7 5.7h-8.5c-0.5 0-0.8-0.3-0.8-0.8 0-0.4 0.3-0.8 0.8-0.8zm-17.3-12.1c0-1.7 1.4-3.2 3.2-3.2 1.8 0 3.2 1.5 3.2 3.2v1.6c0 1.8-1.4 3.3-3.2 3.3-1.8 0-3.2-1.5-3.2-3.3zm3.2 6.5q0.9 0 1.6-0.3v0.9c-0.2 0.3-0.7 1-1.6 1-0.8 0-1.4-0.7-1.6-1v-0.9q0.8 0.3 1.6 0.3zm-7.2 4.2c0-0.7 0.4-1.3 1.1-1.5l3.4-1c0.4 0.6 1.3 1.5 2.7 1.5 1.4 0 2.3-0.9 2.8-1.5l3.3 1c0.6 0.2 1.1 0.7 1.1 1.3h-0.7c-1.4 0-2.4 1.1-2.4 2.4q0 0.5 0.1 0.9h-11.4zm-3.3 4.6h25v1.6h-25zm1.7 6.4h2.4v-1.6h-2.4v-1.6h20.9v1.6h-16.9v1.6h16.9v9.7h-1.9l-1.6-3.2h-13.9l-1.6 3.2h-1.9zm17.2 9.7h-13.5l0.8-1.6h11.9z"/></g></svg>