<svg version="1.2" xmlns="http://www.w3.org/2000/svg" viewBox="0 0 50 51" width="50" height="51"><defs><clipPath clipPathUnits="userSpaceOnUse" id="cp1"><path d="m0 0.69h50v50h-50z"/></clipPath><linearGradient id="P" gradientUnits="userSpaceOnUse"/><linearGradient id="g1" x2="1" href="#P" gradientTransform="matrix(48.627,0,0,48.627,.687,25.688)"><stop stop-color="#1956c1"/><stop offset="1" stop-color="#e2403b"/></linearGradient></defs><style>.a{fill:url(#g1)}</style><filter id="f0"><feFlood flood-color="#b4924a" flood-opacity="1" /><feBlend mode="normal" in2="SourceGraphic"/><feComposite in2="SourceAlpha" operator="in" /></filter><g clip-path="url(#cp1)" filter="url(#f0)"><path fill-rule="evenodd" class="a" d="m25 12.1c7.5 0 13.6 6.1 13.6 13.6 0 7.5-6.1 13.6-13.6 13.6-7.5 0-13.6-6.1-13.6-13.6 0-7.5 6.1-13.6 13.6-13.6zm9.4 21.2c1.7-2.1 2.7-4.7 2.7-7.6 0-6.7-5.4-12.1-12.1-12.1-6.7 0-12.1 5.4-12.1 12.1 0 2.9 1 5.5 2.7 7.6 0.9-3.1 3.2-5.6 6.2-6.6-1.3-1-2.1-2.6-2.1-4.3 0-2.9 2.4-5.3 5.3-5.3 2.9 0 5.3 2.4 5.3 5.3 0 1.7-0.8 3.3-2.1 4.3 3 1 5.3 3.5 6.2 6.6zm-17.5 1.3c2.2 2 5 3.1 8.1 3.1 3.1 0 5.9-1.1 8.1-3.1-0.6-3.9-4-6.9-8.1-6.9-4.1 0-7.5 3-8.1 6.9zm8.1-8.5c2.1 0 3.8-1.6 3.8-3.7 0-2.1-1.7-3.8-3.8-3.8-2.1 0-3.8 1.7-3.8 3.8 0 2.1 1.7 3.7 3.8 3.7zm22.7 0.4h-4.5l0.7 0.7c0.2 0.3 0.2 0.8-0.1 1.1-0.4 0.3-0.9 0.3-1.1-0.1l-1.8-2c-0.2-0.3-0.2-0.7 0-1l1.8-2.1c0.2-0.3 0.7-0.3 1.1 0 0.3 0.2 0.3 0.7 0.1 1.1l-0.7 0.7h5.3c0.5 0 0.8 0.4 0.8 0.8 0 11.8-8.4 21.7-19.6 23.8-0.4 0.1-0.8-0.1-0.9-0.6-0.1-0.4 0.2-0.8 0.6-0.9 10.2-2 18-10.8 18.3-21.5zm-23.5-19v-5.3c0-0.5 0.4-0.8 0.8-0.8 11.8 0 21.7 8.4 23.9 19.6 0 0.4-0.2 0.8-0.7 0.9-0.4 0.1-0.8-0.2-0.9-0.6-2-10.2-10.8-18-21.5-18.3v4.5l0.7-0.7c0.4-0.2 0.9-0.2 1.1 0.1 0.3 0.4 0.3 0.9-0.1 1.1l-2 1.7c-0.3 0.3-0.7 0.3-1 0l-2-1.7c-0.4-0.2-0.4-0.7-0.1-1.1 0.2-0.3 0.7-0.3 1.1-0.1zm-22 17.5h4.5l-0.6-0.8c-0.3-0.3-0.2-0.8 0.1-1.1 0.3-0.3 0.8-0.2 1.1 0.1l1.7 2.1c0.3 0.2 0.3 0.7 0 1l-1.7 2c-0.3 0.3-0.8 0.4-1.1 0.1-0.3-0.3-0.4-0.8-0.1-1.1l0.6-0.8h-5.3c-0.4 0-0.8-0.3-0.8-0.7 0-11.8 8.5-21.7 19.7-23.9 0.4-0.1 0.8 0.2 0.9 0.6 0.1 0.4-0.2 0.9-0.6 0.9-10.2 2-18 10.9-18.4 21.6zm22 23.5v-4.5l-0.8 0.6c-0.3 0.3-0.8 0.3-1.1-0.1-0.3-0.3-0.2-0.8 0.1-1.1l2.1-1.7c0.2-0.2 0.7-0.2 1 0l2 1.7c0.3 0.3 0.4 0.8 0.1 1.1-0.3 0.4-0.8 0.4-1.1 0.1l-0.8-0.6v5.3c0 0.4-0.3 0.8-0.7 0.8-11.9 0-21.7-8.5-23.9-19.6-0.1-0.5 0.2-0.9 0.6-1 0.4 0 0.9 0.2 0.9 0.7 2 10.2 10.9 17.9 21.6 18.3z"/></g></svg>