<svg version="1.2" xmlns="http://www.w3.org/2000/svg" viewBox="0 0 50 51" width="50" height="51"><style>.a{fill:#b4924a}</style><path class="a" d="m4.2 25.7c0-3.9 1.1-7.8 3.1-11.1 2.1-3.3 5.1-6 8.6-7.7 3.5-1.7 7.5-2.3 11.3-1.9 3.9 0.4 7.6 1.9 10.7 4.3h-3.2q-0.4 0-0.7 0.3-0.3 0.3-0.3 0.8 0 0.4 0.3 0.7 0.3 0.3 0.7 0.3h5.9c0.3 0 0.6-0.1 0.8-0.3 0.2-0.2 0.3-0.4 0.3-0.7v-5.9q0-0.2-0.1-0.4-0.1-0.2-0.2-0.4-0.2-0.1-0.4-0.2-0.2-0.1-0.4-0.1-0.2 0-0.4 0.1-0.2 0.1-0.3 0.2-0.2 0.2-0.2 0.4-0.1 0.2-0.1 0.4v3.5c-4.6-3.7-10.4-5.6-16.2-5.2-5.9 0.5-11.4 3.1-15.4 7.5-3.9 4.3-6.1 10-5.9 15.9 0.1 5.9 2.5 11.5 6.7 15.7q0.1 0.1 0.3 0.2 0.2 0.1 0.4 0.1 0.2 0 0.4-0.1 0.2-0.1 0.4-0.2 0.1-0.1 0.2-0.3 0.1-0.2 0.1-0.4 0-0.3-0.1-0.4-0.1-0.2-0.2-0.4c-2-1.9-3.5-4.2-4.6-6.7-1-2.6-1.5-5.3-1.5-8z"/><path class="a" d="m15.9 44.4q-0.9-0.4-1.7-0.9-0.4-0.2-0.8-0.1-0.4 0.1-0.7 0.4-0.2 0.4-0.1 0.8c0.1 0.3 0.2 0.5 0.5 0.7q0.9 0.5 1.9 1 0.2 0.1 0.4 0.1 0.2 0 0.4 0 0.2-0.1 0.3-0.3 0.2-0.1 0.3-0.3 0.1-0.2 0.1-0.4 0-0.2-0.1-0.4 0-0.2-0.2-0.3-0.1-0.2-0.3-0.3z"/><path class="a" d="m43.8 16.6q0 0.2 0.2 0.3 0.2 0.2 0.4 0.2 0.1 0.1 0.4 0.1 0.2 0 0.3-0.1 0.2-0.1 0.4-0.3 0.1-0.1 0.2-0.3 0-0.2 0-0.4 0-0.2-0.1-0.4-0.4-1-1-1.9-0.1-0.2-0.3-0.3-0.2-0.1-0.4-0.2c-0.2-0.1-0.5 0-0.7 0.1q-0.4 0.3-0.5 0.7-0.1 0.4 0.1 0.8 0.5 0.8 1 1.7z"/><path class="a" d="m27.5 46.4q-1 0.1-2 0.1-0.4 0-0.7 0.3-0.3 0.3-0.3 0.8 0 0.4 0.3 0.7 0.3 0.3 0.7 0.3 0 0 0 0 1.1 0 2.2-0.2 0.4 0 0.7-0.3 0.3-0.4 0.2-0.8 0-0.4-0.4-0.7-0.3-0.3-0.7-0.2z"/><path class="a" d="m21.5 46.2q-0.9-0.1-1.9-0.4-0.4-0.1-0.8 0.1-0.4 0.2-0.5 0.7-0.1 0.4 0.1 0.7 0.3 0.4 0.7 0.5 1 0.3 2.1 0.5 0.2 0 0.4 0 0.2-0.1 0.4-0.2 0.1-0.1 0.3-0.3 0.1-0.2 0.1-0.4 0-0.2 0-0.4-0.1-0.2-0.2-0.3-0.1-0.2-0.3-0.3-0.2-0.1-0.4-0.2z"/><path class="a" d="m46.9 25.2c-0.3 0-0.5 0.1-0.7 0.3q-0.4 0.3-0.4 0.7 0 1-0.1 2-0.1 0.4 0.2 0.7 0.3 0.4 0.7 0.4 0.1 0 0.1 0 0.4 0 0.7-0.2 0.3-0.3 0.4-0.7 0.1-1.1 0.1-2.1 0-0.3-0.1-0.4 0-0.2-0.2-0.4-0.1-0.1-0.3-0.2-0.2-0.1-0.4-0.1z"/><path class="a" d="m43.7 37.1q-0.4-0.2-0.8-0.2-0.4 0.1-0.7 0.5-0.5 0.8-1.1 1.6-0.2 0.1-0.2 0.3-0.1 0.2-0.1 0.4 0 0.2 0.1 0.4 0.1 0.2 0.3 0.3 0.1 0.2 0.3 0.2 0.2 0.1 0.5 0.1 0.2 0 0.3-0.1 0.2-0.1 0.4-0.3 0.7-0.9 1.3-1.8 0.1-0.1 0.1-0.3 0.1-0.2 0-0.4 0-0.2-0.1-0.4-0.1-0.2-0.3-0.3z"/><path class="a" d="m45.1 20.3q0.3 1 0.4 2 0.1 0.3 0.4 0.6 0.3 0.2 0.7 0.2 0.1 0 0.1 0 0.3 0 0.4-0.1 0.2-0.1 0.3-0.3 0.1-0.2 0.2-0.4 0-0.2 0-0.4-0.2-1.1-0.5-2.1-0.1-0.4-0.4-0.7-0.4-0.2-0.8-0.1-0.4 0.2-0.7 0.5-0.2 0.4-0.1 0.8z"/><path class="a" d="m38.3 41.8q-0.8 0.6-1.6 1.1-0.2 0.2-0.3 0.3-0.1 0.2-0.2 0.4 0 0.2 0 0.4 0.1 0.2 0.2 0.4 0.1 0.2 0.3 0.3 0.2 0.1 0.4 0.1 0.2 0.1 0.4 0 0.2 0 0.3-0.1 0.9-0.6 1.8-1.3 0.3-0.3 0.4-0.7 0-0.5-0.3-0.8-0.3-0.3-0.7-0.4-0.4 0-0.7 0.3z"/><path class="a" d="m46.2 31.4q-0.5-0.2-0.8 0-0.4 0.2-0.6 0.6-0.3 1-0.7 1.9 0 0.2 0 0.4 0 0.2 0 0.4 0.1 0.2 0.3 0.4 0.1 0.1 0.3 0.2 0.2 0.1 0.4 0.1 0.2 0 0.4-0.1 0.2-0.1 0.3-0.2 0.2-0.2 0.3-0.4 0.4-1 0.7-2 0.1-0.2 0.1-0.4 0-0.2-0.1-0.4-0.1-0.2-0.3-0.3-0.2-0.2-0.3-0.2z"/><path class="a" d="m33.2 44.8q-0.9 0.4-1.9 0.7-0.2 0.1-0.3 0.2-0.2 0.2-0.3 0.4-0.1 0.1-0.1 0.3 0 0.2 0.1 0.4 0 0.2 0.2 0.4 0.1 0.2 0.3 0.3 0.2 0 0.4 0.1 0.2 0 0.4-0.1 1-0.3 2-0.7 0.4-0.2 0.6-0.6 0.1-0.4 0-0.8-0.2-0.4-0.6-0.6-0.4-0.1-0.8 0z"/><path class="a" d="m16.2 23.6c0-1.7-1.1-3.1-2.9-3.5-0.9-0.3-1.9-0.1-2.8 0.3-0.9 0.4-1.6 1.1-2.1 2q-0.1 0.4 0 0.8 0.1 0.4 0.5 0.6 0.4 0.2 0.8 0 0.4-0.1 0.6-0.5c0.2-0.5 0.6-0.8 1.1-1 0.4-0.3 1-0.3 1.5-0.2 0.2 0.1 1.2 0.4 1.2 1.5 0 1-1.2 1.9-2.6 2.8-1.5 1-3.2 2.1-3.2 4q0 0.4 0.3 0.7 0.3 0.3 0.8 0.3h5.7q0.3 0 0.5-0.1 0.1 0 0.3-0.2 0.1-0.1 0.2-0.3 0.1-0.2 0.1-0.4 0-0.2-0.1-0.4-0.1-0.2-0.2-0.4-0.2-0.1-0.3-0.2-0.2-0.1-0.5-0.1h-4.1c0.5-0.4 1.1-0.8 1.7-1.2 1.6-1.1 3.5-2.3 3.5-4.5z"/><path class="a" d="m26 27c0-0.3-0.1-0.6-0.3-0.7q-0.3-0.3-0.7-0.4h-0.8v-5.5q0-0.3-0.2-0.6-0.2-0.3-0.5-0.4-0.4-0.1-0.7 0-0.3 0.1-0.5 0.4l-5.3 6.5q-0.2 0.3-0.2 0.6 0 0.3 0.1 0.5 0.1 0.3 0.4 0.5 0.2 0.1 0.5 0.1h4.3v3q0 0.2 0 0.4 0.1 0.2 0.3 0.3 0.1 0.2 0.3 0.2 0.2 0.1 0.4 0.1 0.2 0 0.4-0.1 0.2 0 0.4-0.2 0.1-0.1 0.2-0.3 0.1-0.2 0.1-0.4v-3h0.8q0.4 0 0.7-0.3 0.3-0.3 0.3-0.7zm-3.9-1.1h-2.1l2.1-2.5z"/><path class="a" d="m31.4 18.8q-0.2 0-0.4 0-0.2 0-0.4 0.2-0.2 0.1-0.3 0.2-0.1 0.2-0.2 0.4l-2.3 11.7q-0.1 0.5 0.2 0.8c0.1 0.3 0.3 0.4 0.6 0.5q0.1 0 0.2 0 0.4 0 0.7-0.2 0.3-0.3 0.3-0.6l2.4-11.8q0-0.2 0-0.4-0.1-0.2-0.2-0.3-0.1-0.2-0.3-0.3-0.1-0.2-0.3-0.2z"/><path class="a" d="m36.7 31.4q0.3 0 0.6-0.2 0.3-0.1 0.4-0.4l3.9-9.4q0.1-0.2 0.1-0.5-0.1-0.3-0.2-0.5-0.2-0.2-0.4-0.3-0.2-0.1-0.5-0.1h-5.2q-0.5 0-0.8 0.3-0.3 0.3-0.3 0.7 0 0.4 0.3 0.7 0.3 0.3 0.8 0.3h3.7l-3.3 8q-0.1 0.2-0.1 0.5 0 0.2 0.2 0.5 0.1 0.2 0.3 0.3 0.3 0.1 0.5 0.1z"/></svg>