<svg version="1.2" xmlns="http://www.w3.org/2000/svg" viewBox="0 0 50 51" width="50" height="51"><style>.a{fill:#b4924a}</style><path class="a" d="m49.3 39.5c0.4 0 0.7-0.4 0.7-0.8v-1.1c0-2-1.3-3.8-3.2-4.4l-4.6-1.5v-1.6c1.6-1 2.7-2.7 2.7-4.7v-3.2c0-3-2.5-5.4-5.5-5.4-1.8 0-3.4 0.8-4.4 2.1-0.5-1-1.4-1.8-2.6-2.2l-4.6-1.5v-1.6c1.6-0.9 2.7-2.7 2.7-4.7v-3.1c0-3.1-2.5-5.5-5.5-5.5-3 0-5.5 2.4-5.5 5.5v3.1c0 2 1.1 3.8 2.7 4.7v1.6l-4.6 1.5c-1.2 0.4-2.1 1.2-2.6 2.2-1-1.3-2.6-2.1-4.4-2.1-3 0-5.5 2.4-5.5 5.4v3.2c0 2 1.1 3.7 2.7 4.7v1.6l-4.6 1.5c-1.9 0.6-3.2 2.4-3.2 4.4v1.1c0 0.4 0.3 0.8 0.7 0.8 0.4 0 0.8-0.4 0.8-0.8v-1.1c0-1.4 0.9-2.6 2.2-3l4.3-1.4c0.4 1 1.4 1.8 2.6 1.8 1.2 0 2.2-0.8 2.6-1.8l4.3 1.4c1 0.3 1.7 1 2 1.9l-1.9 0.6c-1.9 0.7-3.2 2.4-3.2 4.5v0.8h-8.8v-1.8c0-0.4-0.3-0.7-0.7-0.7-0.4 0-0.8 0.3-0.8 0.7v1.8h-2.6v-0.2c0-0.4-0.4-0.8-0.8-0.8-0.4 0-0.7 0.4-0.7 0.8v1c0 0.4 0.3 0.7 0.7 0.7h13.7v5.7c0 0.4 0.3 0.7 0.7 0.7h19.8c0.4 0 0.7-0.3 0.7-0.7v-1c0-0.4-0.3-0.7-0.7-0.7-0.4 0-0.8 0.3-0.8 0.7v0.2h-2.6v-4.3c0-0.4-0.4-0.7-0.8-0.7-0.4 0-0.7 0.3-0.7 0.7v4.3h-10v-4.3c0-0.4-0.3-0.7-0.7-0.7-0.4 0-0.8 0.3-0.8 0.7v4.3h-2.6v-7.2c0-1.4 0.9-2.7 2.2-3.1l4.3-1.4c0.4 1.1 1.4 1.9 2.6 1.9 1.2 0 2.2-0.8 2.6-1.9l4.3 1.4c1.3 0.4 2.2 1.7 2.2 3.1v3.6c0 0.4 0.4 0.7 0.8 0.7 0.4 0 0.7-0.3 0.7-0.7v-1.3h13.7c0.4 0 0.7-0.3 0.7-0.7v-1c0-0.4-0.3-0.8-0.7-0.8-0.4 0-0.8 0.4-0.8 0.8v0.2h-2.6v-1.8c0-0.4-0.4-0.7-0.8-0.7-0.4 0-0.7 0.3-0.7 0.7v1.8h-8.8v-0.8c0-2.1-1.3-3.8-3.2-4.5l-1.9-0.6c0.3-0.9 1-1.6 2-1.9l4.3-1.4c0.4 1 1.4 1.8 2.6 1.8 1.2 0 2.2-0.8 2.6-1.8l4.3 1.4c1.3 0.4 2.2 1.6 2.2 3v1.1c0 0.4 0.4 0.8 0.8 0.8zm-9.9-21.3c2.2 0 4 1.8 4 4v3.2c0 2.2-1.8 4-4 4-2.2 0-4-1.8-4-4v-3.2c0-2.2 1.8-4 4-4zm-18.4-9.3v-3.1c0-2.2 1.8-4 4-4 2.2 0 4 1.8 4 4v3.1c0 2.2-1.8 4-4 4-2.2 0-4-1.8-4-4zm4 5.5q0.7 0 1.3-0.2v1.5q0 0 0 0c0 0.8-0.6 1.4-1.3 1.4-0.7 0-1.3-0.6-1.3-1.4q0 0 0 0v-1.5q0.6 0.2 1.3 0.2zm-6.9 3.7l4.3-1.4c0.4 1.1 1.4 1.8 2.6 1.8 1.2 0 2.2-0.7 2.6-1.8l4.3 1.4c1.2 0.4 2.1 1.5 2.2 2.7q-0.2 0.7-0.2 1.4v3.2q0 0.3 0.1 0.5h-3.5c-0.2-2.9-2.6-5.2-5.5-5.2-2.9 0-5.3 2.3-5.5 5.2h-3.5q0.1-0.2 0.1-0.5v-3.2q0-0.7-0.2-1.4c0.1-1.2 1-2.3 2.2-2.7zm6.9 15.2c-2.2 0-4-1.8-4-4v-3.1c0-2.2 1.8-4 4-4 2.2 0 4 1.8 4 4v3.1c0 2.2-1.8 4-4 4zm-18.4-7.9v-3.2c0-2.2 1.8-4 4-4 2.2 0 4 1.8 4 4v3.2c0 2.2-1.8 4-4 4-2.2 0-4-1.8-4-4zm5.3 6.8c0 0.7-0.6 1.3-1.3 1.3-0.7 0-1.3-0.6-1.3-1.3v-1.5q0.6 0.2 1.3 0.2 0.7 0 1.3-0.2zm6.1 1l-4.6-1.5v-1.6c1-0.6 1.8-1.6 2.3-2.7h3.8v1.9c0 2 1.1 3.8 2.7 4.7v1.6l-1.3 0.4c-0.5-1.3-1.5-2.4-2.9-2.8zm7 4.3c-0.7 0-1.3-0.6-1.3-1.4q0 0 0 0v-1.5q0.6 0.2 1.3 0.2 0.7 0 1.3-0.2v1.5c0 0.8-0.6 1.4-1.3 1.4zm7-4.3c-1.4 0.4-2.4 1.5-2.9 2.8l-1.3-0.4v-1.6c1.6-0.9 2.7-2.7 2.7-4.7v-1.9h3.8c0.5 1.1 1.3 2.1 2.3 2.7v1.6zm7.4 0.3c-0.8 0-1.4-0.6-1.4-1.3v-1.5q0.7 0.1 1.4 0.1 0.7 0 1.3-0.1v1.5c0 0.7-0.6 1.3-1.3 1.3z"/></svg>