<svg version="1.2" xmlns="http://www.w3.org/2000/svg" viewBox="0 0 50 51" width="50" height="51"><style>.a{fill:#b4924a}</style><path class="a" d="m17 7.9c0.2 0.3 0.4 0.4 0.7 0.4q0.2 0 0.4-0.1 2.7-1.3 5.8-1.5c0.4 0 0.7-0.4 0.7-0.8v-3.6q0-0.4-0.3-0.6-0.2-0.2-0.6-0.2c-2.8 0.2-5.6 0.9-8.2 2.2q-0.3 0.1-0.4 0.4-0.1 0.4 0.1 0.7zm6-4.9v2.1q-2.6 0.3-5 1.4l-1-1.9q2.8-1.2 6-1.6zm-17.3 29.6q0.1 0.3 0.5 0.4 0.1 0.1 0.2 0.1 0.2 0 0.4-0.1l3.2-1.9c0.3-0.2 0.4-0.6 0.3-1q-1.3-2.7-1.6-5.8c0-0.4-0.3-0.7-0.8-0.7h-3.6q-0.4 0-0.6 0.2-0.2 0.3-0.2 0.6c0.2 2.9 0.9 5.7 2.2 8.2zm1.5-7.4q0.3 2.5 1.4 4.9l-1.9 1.1q-1.2-2.9-1.6-6zm-2.9-2.7h3.6c0.5 0 0.8-0.3 0.8-0.7q0.3-3.1 1.6-5.8c0.2-0.4 0-0.8-0.3-1.1l-3.2-1.8q-0.3-0.2-0.6-0.1-0.4 0.1-0.5 0.4c-1.3 2.6-2 5.4-2.2 8.2q0 0.4 0.2 0.6 0.2 0.3 0.6 0.3zm2.4-7.6l1.9 1q-1 2.4-1.4 5h-2.1q0.3-3.1 1.6-6zm41.9 10.2c-0.2-0.4-0.6-0.7-1.1-0.7h-0.8q0.1-0.7 0.1-1.4c0-5.5-2.1-10.8-5.9-14.8-3.8-4-8.9-6.4-14.4-6.8q-0.3 0-0.6 0.2-0.2 0.2-0.2 0.6v3.7c0 0.4 0.3 0.7 0.7 0.7 8.5 0.7 15.2 7.9 15.2 16.4q0 0.7-0.1 1.4h-0.5c-0.5 0-0.9 0.3-1.1 0.7-0.2 0.4-0.1 0.9 0.2 1.2l3.2 4.2c0.2 0.3 0.6 0.4 1 0.4 0.3 0 0.7-0.1 0.9-0.4l3.3-4.2c0.2-0.3 0.3-0.8 0.1-1.2zm-4.3 4l-2.6-3.1h0.5c0.4 0 0.7-0.3 0.8-0.7q0.1-1.1 0.1-2.3c0-4.5-1.7-8.9-4.8-12.2-2.9-3.2-6.8-5.2-11.1-5.7v-2.1c10.2 1.1 18 9.7 18 20q0 1.1-0.1 2.1 0 0.3 0.2 0.6 0.2 0.3 0.6 0.3h0.9zm-36.9-17.1l3.1 1.9q0.2 0.1 0.4 0.1c0.3 0 0.5-0.1 0.7-0.4q1.7-2.5 4.2-4.2c0.3-0.3 0.4-0.7 0.2-1.1l-1.8-3.1q-0.2-0.3-0.5-0.4-0.3-0.1-0.6 0.1c-2.4 1.6-4.4 3.6-6 6q-0.2 0.3-0.1 0.6 0.1 0.4 0.4 0.5zm5.9-5.3l1 1.8q-2 1.6-3.6 3.7l-1.8-1.1q1.8-2.5 4.4-4.4zm22.7 26.5l-7.5 4.3q-0.5 0.3-0.9 0.4 0.1-0.2 0.2-0.6c0.4-1.5-0.5-3-2-3.5q0 0-0.1 0c-2.2-0.4-4.3-1.2-6-1.8q-0.9-0.4-1.6-0.6c-2-0.6-3.8 0.2-5.3 1l-5.5 3.2-0.4-0.8c-0.3-0.5-0.7-0.8-1.2-0.9-0.5-0.2-1-0.1-1.4 0.1l-2.1 1.2c-0.9 0.6-1.2 1.7-0.7 2.6l6.2 11c0.2 0.4 0.6 0.7 1.1 0.9q0.3 0.1 0.5 0.1 0.5 0 1-0.3l2.1-1.2c0.4-0.2 0.7-0.6 0.9-1.1 0.1-0.5 0-1-0.2-1.5l-0.6-1 1.1-0.7 9.6 2.6q0.9 0.2 1.7 0.2 1.6 0 3-0.8l13.7-8.5c1.3-0.8 1.7-2.8 0.8-4.2-0.4-0.7-2-2.7-6.4-0.1zm-24.2 13.6c-0.1 0-0.1 0.1-0.2 0.2l-2.1 1.1c-0.1 0.1-0.2 0.1-0.3 0.1 0 0-0.1-0.1-0.2-0.2l-6.2-11c-0.1-0.1 0-0.3 0.2-0.4l2.1-1.2q0.1 0 0.1 0 0.1 0 0.1 0c0.1 0 0.2 0 0.2 0.1l6.2 11c0.1 0.1 0.1 0.2 0.1 0.3zm29-10.6l-13.7 8.4q-1.6 1-3.5 0.5l-9.9-2.7q-0.3 0-0.6 0.1l-1.4 0.8-3.6-6.3 5.5-3.2c1.3-0.8 2.6-1.4 4-0.9q0.7 0.2 1.6 0.6c1.7 0.6 3.9 1.4 6.2 1.8 0.7 0.2 1.1 0.9 0.9 1.6-0.2 0.9-1 1.1-1.6 1-1.1-0.2-2.2-0.5-3.3-0.9q-0.8-0.2-1.6-0.4c-0.4-0.1-0.8 0.1-1 0.5-0.1 0.5 0.2 0.9 0.6 1q0.8 0.2 1.6 0.4c1.2 0.4 3.4 0.9 3.5 0.9l0.9 0.2c1.4 0.2 2.7 0 3.9-0.7l7.5-4.4c2.1-1.2 3.7-1.4 4.3-0.4 0.4 0.7 0.2 1.8-0.3 2.1zm-35.2 1.2c0.1 0.4-0.2 0.8-0.6 0.9-0.4 0-0.8-0.2-0.9-0.7 0-0.4 0.3-0.8 0.7-0.8 0.4-0.1 0.8 0.2 0.8 0.6zm26.2-21.8c0-3.1-2.6-5.6-5.7-5.6-3.1 0-5.6 2.5-5.6 5.6 0 1.9 0.9 3.6 2.3 4.6-3.7 1.3-6.6 4.6-7 8.8q-0.1 0.4 0.2 0.6 0.2 0.3 0.5 0.3h19.2q0.3 0 0.6-0.3 0.2-0.2 0.2-0.6c-0.5-4.2-3.3-7.5-7.1-8.8 1.4-1 2.4-2.7 2.4-4.6zm3 12.7h-17.4c0.9-4.1 4.5-7 8.7-7q0 0 0 0c4.3 0 7.8 2.9 8.7 7zm-8.7-8.6q0 0 0 0c-2.2 0-4.1-1.8-4.1-4.1 0-2.2 1.9-4.1 4.1-4.1 2.3 0 4.1 1.9 4.1 4.1 0 2.3-1.8 4.1-4.1 4.1q0 0 0 0z"/></svg>