<svg version="1.2" xmlns="http://www.w3.org/2000/svg" viewBox="0 0 50 51" width="50" height="51"><style>.a{fill:#b4924a}</style><path class="a" d="m38.3 20.6c0-7.4-5.9-13.4-13.3-13.4-7.4 0-13.3 6-13.3 13.4 0 7.3 5.9 13.3 13.3 13.3 7.4 0 13.3-6 13.3-13.3zm-13.3 11.6c-6.4 0-11.7-5.2-11.7-11.6 0-6.5 5.3-11.7 11.7-11.7 6.4 0 11.7 5.2 11.7 11.7 0 6.4-5.3 11.6-11.7 11.6z"/><path class="a" d="m49.8 39.8l-8.6-10.3c0.1-0.7 0.2-1.4 0.5-2 0.3-0.8 0.9-1.5 1.4-2.3 1-1.3 2.2-2.8 2.2-4.6 0-1.8-1.2-3.4-2.2-4.7-0.5-0.8-1.1-1.5-1.4-2.3-0.3-0.7-0.5-1.7-0.6-2.7-0.3-1.7-0.5-3.4-1.8-4.7-1.2-1.2-3-1.5-4.7-1.7-1-0.2-1.9-0.3-2.7-0.6-0.7-0.3-1.5-0.9-2.2-1.5-1.4-1-2.9-2.1-4.7-2.1-1.8 0-3.3 1.1-4.7 2.1-0.7 0.6-1.5 1.2-2.2 1.5-0.8 0.3-1.7 0.4-2.7 0.6-1.7 0.2-3.5 0.5-4.7 1.7-1.3 1.3-1.5 3-1.8 4.7-0.1 1-0.3 2-0.6 2.7-0.3 0.8-0.9 1.5-1.4 2.3-1 1.3-2.2 2.9-2.2 4.7 0 1.8 1.2 3.3 2.2 4.6 0.5 0.8 1.1 1.5 1.4 2.3 0.3 0.6 0.4 1.3 0.5 2l-8.6 10.3c-0.2 0.3-0.3 0.6-0.1 0.9 0.1 0.3 0.4 0.5 0.7 0.5l8 0.7 2.1 7.8c0.1 0.3 0.3 0.5 0.6 0.6 0.3 0 0.6-0.1 0.8-0.3l9-10.6c1.1 0.7 2.3 1.4 3.7 1.4 1.4 0 2.6-0.7 3.7-1.4l9 10.6c0.2 0.2 0.5 0.3 0.8 0.3 0.3-0.1 0.5-0.3 0.6-0.6l2.1-7.8 8-0.7c0.3 0 0.6-0.2 0.7-0.5 0.2-0.3 0.1-0.6-0.1-0.9zm-37.7 7.9l-1.8-6.8c-0.1-0.4-0.4-0.6-0.8-0.7l-7-0.5 6.7-8c0.2 1.2 0.6 2.3 1.5 3.2 1.2 1.2 3 1.5 4.7 1.7 1 0.2 1.9 0.3 2.7 0.7 0.6 0.2 1.2 0.6 1.8 1.1zm9.3-10.4c-0.9-0.6-1.7-1.2-2.7-1.6-0.9-0.4-2-0.6-3.1-0.7-1.5-0.3-2.9-0.5-3.7-1.3-0.9-0.8-1.1-2.3-1.3-3.8-0.2-1-0.3-2.1-0.7-3.1-0.4-0.9-1.1-1.8-1.7-2.6-0.9-1.2-1.8-2.4-1.8-3.7 0-1.2 0.9-2.4 1.8-3.6 0.6-0.9 1.3-1.7 1.7-2.6 0.4-1 0.5-2.1 0.7-3.2 0.2-1.5 0.4-2.9 1.3-3.7 0.8-0.8 2.2-1.1 3.7-1.3 1.1-0.1 2.2-0.3 3.1-0.7 1-0.4 1.8-1 2.7-1.7 1.2-0.9 2.4-1.8 3.6-1.8 1.3 0 2.4 0.9 3.7 1.8 0.8 0.7 1.7 1.3 2.6 1.7 1 0.4 2.1 0.6 3.1 0.7 1.5 0.2 2.9 0.5 3.8 1.3 0.8 0.8 1 2.2 1.3 3.7 0.1 1.1 0.3 2.2 0.7 3.2 0.4 0.9 1 1.8 1.6 2.6 0.9 1.2 1.8 2.4 1.8 3.6 0 1.3-0.9 2.5-1.8 3.7-0.6 0.8-1.2 1.7-1.6 2.6-0.4 1-0.6 2.1-0.7 3.1-0.3 1.5-0.5 3-1.3 3.8-0.9 0.8-2.3 1-3.8 1.3-1 0.1-2.1 0.3-3.1 0.7-0.9 0.4-1.8 1-2.6 1.6-1.3 1-2.4 1.8-3.7 1.8-1.2 0-2.4-0.8-3.6-1.8zm19.1 2.9c-0.4 0.1-0.7 0.3-0.8 0.6l-1.8 6.9-7.8-9.3c0.6-0.5 1.2-0.9 1.8-1.2 0.8-0.3 1.8-0.4 2.8-0.6 1.7-0.2 3.4-0.5 4.7-1.7 0.8-0.9 1.2-2 1.4-3.2l6.7 7.9-7 0.6z"/><path class="a" d="m33.3 18.6c-0.1-0.3-0.4-0.5-0.7-0.5l-4.7-0.7-2.2-4.3c-0.2-0.6-1.2-0.6-1.4 0l-2.2 4.3-4.7 0.7c-0.3 0-0.6 0.2-0.7 0.5-0.1 0.3 0 0.7 0.2 0.9l3.5 3.3-0.9 4.8c0 0.3 0.1 0.6 0.4 0.8 0.2 0.2 0.6 0.2 0.9 0l4.2-2.2 4.2 2.2c0.3 0.2 0.7 0.2 0.9 0 0.3-0.2 0.4-0.5 0.4-0.8l-0.9-4.8 3.5-3.3c0.2-0.2 0.3-0.6 0.2-0.9zm-5.1 3.3c-0.2 0.2-0.3 0.5-0.3 0.8l0.6 3.5-3.1-1.7q-0.2-0.1-0.4-0.1-0.2 0-0.4 0.1l-3.1 1.7 0.6-3.5c0-0.3-0.1-0.6-0.3-0.8l-2.5-2.4 3.5-0.6c0.3 0 0.5-0.2 0.6-0.4l1.6-3.2 1.6 3.2c0.1 0.2 0.3 0.4 0.6 0.4l3.5 0.6-2.5 2.4z"/></svg>