<svg version="1.2" xmlns="http://www.w3.org/2000/svg" viewBox="0 0 44 45" width="44" height="45"><defs><clipPath clipPathUnits="userSpaceOnUse" id="cp1"><path d="m1 3h42v39h-42zm24.2 13.47l2.52-11.25h-11.79l2.61 11.25-8.82-7.56-5.58 9.99 10.35 3.24-10.53 3.6 6.21 10.71 8.28-8.01-2.34 11.16h11.52l-2.43-11.16 8.46 7.83 5.94-10.44-10.53-3.42 10.53-3.6-5.58-9.99z"/></clipPath><linearGradient id="P" gradientUnits="userSpaceOnUse"/><linearGradient id="g1" x2="1" href="#P" gradientTransform="matrix(57,0,0,53.145,-7,36.5)"><stop/><stop offset="1" stop-color="#b4924a"/></linearGradient></defs><style>.a{fill:url(#g1)}</style><g clip-path="url(#cp1)"><path class="a" d="m34 8.8l1.8-1-1.2-2.1-1.9 1.6zm5.6 10l0.6 1.9 2.3-0.8-1.2-2.1zm-10.5 3.6l-0.6-1.9-5.7 2 5.7 1.8zm10.5 3.4l1.8 1 1.2-2.1-2.4-0.8zm-5.9 10.5l-1.4 1.5 1.9 1.7 1.2-2.2zm-8.4-7.9l1.3-1.4-4.6-4.3 1.3 6.2zm2.4 11.1v2h2.5l-0.5-2.4zm-11.5 0l-2-0.4-0.5 2.4h2.5zm2.3-11.2l2 0.5 1.3-6.4-4.7 4.5zm-8.2 8l-1.8 1 1.3 2.2 1.8-1.7zm-6.2-10.8l-0.6-1.8-2.3 0.7 1.2 2.1zm10.5-3.6l0.7 1.9 5.8-1.9-5.9-1.9zm-10.3-3.2l-1.8-1-1.2 2.2 2.4 0.7zm5.6-10l1.3-1.5-1.9-1.6-1.2 2.1zm8.8 7.6l-1.3 1.5 4.7 4-1.4-6zm-2.6-11.2v-2h-2.5l0.5 2.5zm11.8 0l2 0.4 0.5-2.4h-2.5zm-2.5 11.2l-2-0.4-1.3 5.9 4.6-4zm7.1-6.7l5.6 10 3.5-1.9-5.6-10zm6.6 7.1l-10.5 3.6 1.3 3.8 10.5-3.6zm-10.5 7.4l10.6 3.4 1.2-3.8-10.5-3.4zm9.4 0.5l-6 10.5 3.5 1.9 6-10.4zm-2.9 10l-8.4-7.9-2.8 3 8.5 7.8zm-11.8-5.9l2.5 11.1 3.9-0.8-2.5-11.2zm4.4 8.7h-11.5v4h11.5zm-9.5 2.4l2.3-11.1-3.9-0.8-2.4 11.1zm-1-13l-8.2 8 2.7 2.9 8.3-8zm-5.1 8.4l-6.2-10.7-3.5 2 6.2 10.7zm-7.3-7.8l10.5-3.6-1.3-3.8-10.5 3.6zm10.5-7.4l-10.4-3.2-1.2 3.8 10.4 3.3zm-9.2-0.4l5.6-10-3.5-1.9-5.6 10zm2.5-9.5l8.9 7.6 2.6-3.1-8.9-7.5zm12.1 5.6l-2.6-11.3-3.9 0.9 2.6 11.3zm-4.5-8.8h11.7v-4h-11.7zm9.8-2.5l-2.5 11.3 3.9 0.9 2.5-11.3zm0.7 13.2l8.9-7.7-2.7-3-8.8 7.7z"/></g></svg>