<svg version="1.2" xmlns="http://www.w3.org/2000/svg" viewBox="0 0 51 51" width="51" height="51"><defs><clipPath clipPathUnits="userSpaceOnUse" id="cp1"><path d="m0.5 0.58h50v50h-50z"/></clipPath><linearGradient id="P" gradientUnits="userSpaceOnUse"/><linearGradient id="g1" x2="1" href="#P" gradientTransform="matrix(35.265,0,0,43.29,2.025,28.814)"><stop stop-color="#1956c1"/><stop offset="1" stop-color="#e2403b"/></linearGradient><linearGradient id="g2" x2="1" href="#P" gradientTransform="matrix(8.607,0,0,9.701,21.54,21.436)"><stop stop-color="#1956c1"/><stop offset="1" stop-color="#e2403b"/></linearGradient><linearGradient id="g3" x2="1" href="#P" gradientTransform="matrix(2.662,0,0,9.159,33.06,5.212)"><stop stop-color="#1956c1"/><stop offset="1" stop-color="#e2403b"/></linearGradient><linearGradient id="g4" x2="1" href="#P" gradientTransform="matrix(8.637,0,0,6.317,37.887,11.035)"><stop stop-color="#1956c1"/><stop offset="1" stop-color="#e2403b"/></linearGradient><linearGradient id="g5" x2="1" href="#P" gradientTransform="matrix(9.738,0,0,3.312,39.477,20.285)"><stop stop-color="#1956c1"/><stop offset="1" stop-color="#e2403b"/></linearGradient></defs><style>.a{fill:url(#g1)}.b{fill:url(#g2)}.c{fill:url(#g3)}.d{fill:url(#g4)}.e{fill:url(#g5)}</style><filter id="f0"><feFlood flood-color="#b4924a" flood-opacity="1" /><feBlend mode="normal" in2="SourceGraphic"/><feComposite in2="SourceAlpha" operator="in" /></filter><g clip-path="url(#cp1)" filter="url(#f0)"><path class="a" d="m32.7 16.5c-4.8-7.2-11.3-11-14.7-8.6q-0.6 0.4-1 0.9c0 0-7.9 16-7.9 16l-4.4 3q-1 0.7-1.7 1.7-0.6 1-0.9 2.2-0.2 1.2 0.1 2.5 0.2 1.2 0.9 2.2l0.2 0.3c0.9 1.3 2.3 2.3 4 2.6 1.6 0.3 3.2-0.1 4.6-1l7 10.4c1.1 1.3 3.1 2.6 5.5 1.1q0.7-0.4 1.1-1.1 0.5-0.7 0.6-1.4 0.1-0.8 0-1.6-0.2-0.8-0.6-1.4l-6.2-9.2c0 0 14.7-1.2 14.7-1.2q0.7-0.1 1.3-0.5c1.7-1.2 2.4-3.7 1.8-7-0.6-3.1-2.1-6.6-4.4-9.9zm-27.8 19.1l-0.2-0.3q-0.5-0.7-0.7-1.5-0.1-0.9 0-1.7 0.2-0.8 0.7-1.6 0.4-0.7 1.1-1.1l3.8-2.6 5 7.3-3.7 2.6q-0.8 0.5-1.6 0.7-0.8 0.2-1.7 0-0.8-0.2-1.5-0.6-0.7-0.5-1.2-1.2zm19 9.8c0.3 0.4 0.4 1 0.3 1.5-0.1 0.5-0.4 1-0.9 1.3-0.4 0.3-1 0.4-1.5 0.3-0.5-0.1-1-0.4-1.3-0.9l-7-10.3 2.8-2h0.8zm-7.5-12l-5.4-8 5.2-10.6c0.5 2.9 2 6.5 4.3 10 2.4 3.4 5.1 6.1 7.7 7.7zm16.2-1.3c-2.6-0.2-6.9-3.1-10.5-8.5-3.6-5.3-4.8-10.3-4-12.9 0.2-0.4 0.5-0.8 0.8-1.1 0.4-0.3 0.9-0.5 1.4-0.5 2.6 0 7.1 3 10.8 8.5 2.1 3.1 3.6 6.3 4 9.1 0.8 5.4-2.5 5.4-2.5 5.4z"/><path class="b" d="m25.9 16.7q-1.1-0.2-2.1 0-1 0.2-1.8 0.8-0.2 0.1-0.3 0.3-0.1 0.1-0.1 0.3-0.1 0.2 0 0.4 0 0.2 0.1 0.3 0.1 0.2 0.3 0.3 0.1 0.1 0.3 0.1 0.2 0.1 0.4 0 0.2 0 0.4-0.1 0.5-0.4 1.1-0.5 0.7-0.2 1.3 0 0.7 0.1 1.2 0.5 0.6 0.3 0.9 0.9 0.4 0.5 0.5 1.1 0.2 0.7 0 1.3-0.1 0.7-0.4 1.2-0.4 0.6-0.9 0.9-0.3 0.2-0.4 0.5-0.1 0.3 0 0.6 0.1 0.3 0.3 0.5 0.3 0.2 0.6 0.2 0.3 0 0.6-0.2c0.8-0.6 1.5-1.4 1.9-2.3 0.4-1 0.4-2 0.2-3.1-0.2-1-0.7-1.9-1.4-2.6-0.7-0.7-1.7-1.2-2.7-1.4z"/><path class="c" d="m33.9 9.8h0.1q0.4 0 0.7-0.3 0.2-0.2 0.3-0.6l0.7-7.2q0-0.2 0-0.4-0.1-0.1-0.2-0.3-0.1-0.2-0.3-0.2-0.1-0.1-0.3-0.2-0.2 0-0.4 0.1-0.2 0-0.4 0.2-0.1 0.1-0.2 0.3-0.1 0.1-0.1 0.3l-0.7 7.2q-0.1 0.4 0.2 0.7 0.2 0.3 0.6 0.4z"/><path class="d" d="m46.4 8.3q-0.3-0.3-0.7-0.4-0.3-0.1-0.7 0.1l-6.7 4.4q-0.2 0.2-0.4 0.5-0.1 0.3 0 0.6 0.1 0.3 0.4 0.5 0.2 0.2 0.6 0.2 0.3 0 0.5-0.2l6.7-4.4q0.3-0.2 0.4-0.6 0.1-0.4-0.1-0.7z"/><path class="e" d="m48.4 20l-7.8-1.4q-0.4 0-0.7 0.2-0.3 0.2-0.4 0.6-0.1 0.4 0.1 0.7 0.3 0.4 0.7 0.4l7.8 1.4h0.1q0.4 0 0.7-0.2 0.3-0.3 0.3-0.6 0-0.4-0.2-0.7-0.2-0.3-0.6-0.4z"/></g></svg>