<svg version="1.2" xmlns="http://www.w3.org/2000/svg" viewBox="0 0 51 51" width="51" height="51"><style>.a{fill:#b4924a}</style><path class="a" d="m15 25c0.9 0 1.8-0.4 2.4-1.1l5.6 2.5q-0.1 0.3-0.1 0.6c0 1.7 1.4 3.1 3.1 3.1 1.8 0 3.2-1.4 3.2-3.1q0-0.8-0.4-1.5l10.2-9.1-0.2 1.9c0 0.5 0.3 0.8 0.7 0.9q0.1 0 0.1 0c0.4 0 0.7-0.3 0.8-0.7l0.3-4.1c0-0.2-0.1-0.4-0.2-0.6-0.2-0.2-0.4-0.2-0.7-0.2l-4 0.5c-0.4 0-0.7 0.4-0.7 0.8 0.1 0.5 0.5 0.8 0.9 0.7l1.7-0.2-9.9 9c-0.5-0.3-1.1-0.5-1.8-0.5-0.9 0-1.8 0.4-2.4 1.1l-5.6-2.5q0.1-0.3 0.1-0.6c0-1.7-1.4-3.1-3.1-3.1-1.8 0-3.2 1.4-3.2 3.1q0 0.4 0.1 0.8l-10.3 5.9c-0.3 0.2-0.5 0.7-0.2 1.1 0.1 0.2 0.4 0.4 0.6 0.4q0.2 0 0.4-0.1l10.3-5.9c0.6 0.6 1.4 0.9 2.3 0.9zm11 0.4c0.9 0 1.6 0.7 1.6 1.6 0 0.9-0.7 1.6-1.6 1.6-0.8 0-1.5-0.7-1.5-1.6 0-0.9 0.7-1.6 1.5-1.6zm-11-5.1c0.8 0 1.5 0.7 1.5 1.6 0 0.9-0.7 1.6-1.5 1.6-0.9 0-1.6-0.7-1.6-1.6 0-0.9 0.7-1.6 1.6-1.6zm23.7 3.9c-6.1 0-11.1 4.9-11.1 11 0 6.1 5 11 11.1 11 6 0 11-4.9 11-11 0-6.1-5-11-11-11zm0 20.5c-5.3 0-9.5-4.3-9.5-9.5 0-5.2 4.2-9.5 9.5-9.5 5.2 0 9.4 4.3 9.4 9.5 0 5.2-4.2 9.5-9.4 9.5zm0-18.1c-4.8 0-8.7 3.9-8.7 8.6 0 4.7 3.9 8.6 8.7 8.6 4.7 0 8.6-3.9 8.6-8.6 0-4.7-3.9-8.6-8.6-8.6zm0 15.6c-3.9 0-7.1-3.1-7.1-7 0-3.9 3.2-7 7.1-7 3.8 0 7 3.1 7 7 0 3.9-3.2 7-7 7zm3.2-5.3c0.1 0.7-0.1 1.3-0.5 1.8-0.4 0.6-1.2 0.9-2 1.1v0.4c0 0.4-0.3 0.7-0.7 0.7-0.5 0-0.8-0.3-0.8-0.7v-0.4c-1.3-0.3-2.2-1.1-2.5-2.3-0.1-0.4 0.1-0.8 0.6-1 0.4-0.1 0.8 0.2 0.9 0.6 0.2 0.9 1.1 1.2 1.8 1.2 0.7 0 1.2-0.3 1.5-0.6q0.2-0.2 0.2-0.6c-0.1-0.4-0.3-0.9-1.9-1.2-2.3-0.3-2.8-1.6-2.9-2.5 0-1.3 0.9-2.4 2.3-2.7v-0.5c0-0.4 0.3-0.7 0.8-0.7 0.4 0 0.7 0.3 0.7 0.7v0.5c1 0.2 1.8 0.7 2.3 1.8 0.1 0.4 0 0.9-0.4 1-0.4 0.2-0.9 0-1.1-0.4-0.3-0.9-1.2-1.1-2-0.9-0.1 0-1.1 0.3-1 1.1 0 0.2 0 0.8 1.6 1.1q2.9 0.5 3.1 2.5zm-22.7-0.1c1.6-1 2.6-2.8 2.6-4.9 0-3.2-2.6-5.9-5.9-5.9-3.3 0-6 2.7-6 5.9 0 2.1 1 3.9 2.6 4.9-4.1 1.3-7.1 4.9-7.6 9.4q0 0.3 0.2 0.6 0.2 0.2 0.6 0.2h20.3q0.4 0 0.6-0.2 0.3-0.3 0.2-0.6c-0.5-4.5-3.5-8.1-7.6-9.4zm-7.7-4.9c0-2.4 1.9-4.4 4.4-4.4 2.4 0 4.4 2 4.4 4.4 0 2.5-2 4.4-4.4 4.4-2.5 0-4.4-1.9-4.4-4.4zm-4.9 13.6c0.9-4.4 4.7-7.6 9.3-7.6 4.5 0 8.4 3.2 9.2 7.6zm12.3-28h0.7v2.7c0 0.4 0.2 0.6 0.5 0.8q0.1 0 0.2 0 0.4 0 0.6-0.2l3.2-3.3h7.4c1.4 0 2.5-1.1 2.5-2.5v-8.6c0-1.4-1.1-2.5-2.5-2.5h-12.6c-1.4 0-2.5 1.1-2.5 2.5v8.6c0 1.4 1.1 2.5 2.5 2.5zm-1-11.1c0-0.6 0.5-1 1-1h12.6c0.5 0 1 0.4 1 1v8.6c0 0.5-0.5 0.9-1 0.9h-7.8q-0.3 0-0.5 0.3l-2.1 2.1v-1.6c0-0.4-0.3-0.8-0.8-0.8h-1.4c-0.5 0-1-0.4-1-0.9zm2.2 1.2c0-0.4 0.3-0.8 0.7-0.8h8.8c0.4 0 0.7 0.4 0.7 0.8 0 0.4-0.3 0.8-0.7 0.8h-8.8c-0.4 0-0.7-0.4-0.7-0.8zm0 3.1c0-0.4 0.3-0.8 0.7-0.8h8.8c0.4 0 0.7 0.4 0.7 0.8 0 0.5-0.3 0.8-0.7 0.8h-8.8c-0.4 0-0.7-0.3-0.7-0.8zm0 3.1c0-0.4 0.3-0.8 0.7-0.8h8.8c0.4 0 0.7 0.4 0.7 0.8 0 0.5-0.3 0.8-0.7 0.8h-8.8c-0.4 0-0.7-0.3-0.7-0.8z"/></svg>