<svg version="1.2" xmlns="http://www.w3.org/2000/svg" viewBox="0 0 51 51" width="51" height="51"><style>.a{fill:#b4924a}</style><path class="a" d="m4.6 25.4c0-3.9 1.1-7.7 3.2-11 2.1-3.3 5.1-6 8.6-7.7 3.5-1.7 7.4-2.4 11.3-2 3.9 0.5 7.6 2 10.7 4.4h-3.2q-0.4 0-0.7 0.3-0.3 0.3-0.3 0.7 0 0.5 0.3 0.8 0.3 0.3 0.7 0.3h5.9q0.4 0 0.7-0.3 0.3-0.3 0.3-0.8v-5.9q0-0.2 0-0.4-0.1-0.2-0.3-0.3-0.1-0.2-0.3-0.2-0.2-0.1-0.4-0.1-0.2 0-0.4 0.1-0.2 0-0.3 0.2-0.2 0.1-0.3 0.3 0 0.2 0 0.4v3.6c-4.6-3.8-10.4-5.6-16.3-5.2-5.8 0.4-11.3 3.1-15.3 7.4-3.9 4.4-6.1 10.1-5.9 16 0.1 5.9 2.5 11.5 6.7 15.6q0.1 0.2 0.3 0.3 0.2 0.1 0.4 0.1 0.2 0 0.4-0.1 0.2-0.1 0.4-0.2 0.1-0.2 0.2-0.4 0.1-0.2 0.1-0.4 0-0.2-0.1-0.4-0.1-0.2-0.2-0.3c-2-2-3.5-4.3-4.6-6.8-1-2.5-1.6-5.2-1.6-8z"/><path class="a" d="m16.4 44.2q-0.9-0.4-1.8-1-0.3-0.2-0.7-0.1-0.5 0.1-0.7 0.5-0.2 0.4-0.1 0.8 0.1 0.4 0.5 0.6 0.9 0.6 1.9 1.1 0.2 0.1 0.4 0.1 0.2 0 0.4-0.1 0.2-0.1 0.3-0.2 0.2-0.1 0.3-0.3 0-0.2 0.1-0.4 0-0.2-0.1-0.4-0.1-0.2-0.2-0.4-0.1-0.1-0.3-0.2z"/><path class="a" d="m44.2 16.4q0.1 0.1 0.3 0.3 0.1 0.1 0.3 0.2 0.2 0.1 0.4 0 0.2 0 0.4-0.1 0.2 0 0.4-0.2 0.1-0.2 0.2-0.4 0-0.2 0-0.4 0-0.2-0.1-0.4-0.5-0.9-1-1.9-0.1-0.1-0.3-0.3-0.2-0.1-0.4-0.1-0.4-0.1-0.8 0.1-0.3 0.2-0.4 0.6-0.1 0.4 0.1 0.8 0.5 0.9 0.9 1.8z"/><path class="a" d="m28 46.1q-1 0.1-2 0.2-0.4 0-0.7 0.3-0.3 0.3-0.3 0.7 0 0.4 0.3 0.7 0.3 0.3 0.7 0.4 0 0 0 0 1.1-0.1 2.2-0.2 0.4-0.1 0.7-0.4 0.3-0.3 0.2-0.8 0-0.4-0.4-0.7-0.3-0.2-0.7-0.2z"/><path class="a" d="m22 46q-1-0.2-1.9-0.4-0.4-0.1-0.8 0.1-0.4 0.2-0.5 0.6-0.1 0.4 0.1 0.8c0.2 0.2 0.4 0.4 0.7 0.5q1 0.3 2.1 0.4 0.2 0.1 0.4 0 0.2 0 0.4-0.1 0.1-0.2 0.2-0.3 0.1-0.2 0.2-0.4 0-0.2 0-0.4-0.1-0.2-0.2-0.4-0.1-0.2-0.3-0.3-0.2-0.1-0.4-0.1z"/><path class="a" d="m47.4 24.9q-0.5 0-0.8 0.3-0.3 0.3-0.3 0.8 0 0.9-0.1 1.9-0.1 0.5 0.2 0.8 0.3 0.3 0.7 0.4 0 0 0.1 0 0.4 0 0.7-0.3 0.3-0.2 0.3-0.6 0.2-1.1 0.2-2.2 0-0.2-0.1-0.4-0.1-0.2-0.2-0.3-0.1-0.2-0.3-0.3-0.2-0.1-0.4-0.1z"/><path class="a" d="m44.2 36.9q-0.4-0.3-0.8-0.2-0.4 0.1-0.7 0.4-0.5 0.9-1.2 1.6-0.1 0.2-0.2 0.4 0 0.2 0 0.4 0 0.2 0.1 0.4 0.1 0.2 0.3 0.3 0.1 0.1 0.3 0.2 0.2 0 0.4 0 0.2 0 0.4-0.1 0.2-0.1 0.3-0.3 0.7-0.8 1.4-1.7 0.1-0.2 0.1-0.4 0.1-0.2 0-0.4 0-0.2-0.1-0.4-0.2-0.1-0.3-0.2z"/><path class="a" d="m45.6 20.1q0.3 0.9 0.4 1.9 0.1 0.4 0.4 0.6 0.3 0.3 0.7 0.3 0 0 0.1 0 0.2-0.1 0.4-0.2 0.2-0.1 0.3-0.3 0.1-0.1 0.2-0.3 0-0.2 0-0.4-0.2-1.1-0.5-2.2-0.1-0.4-0.5-0.6-0.3-0.2-0.7-0.1-0.5 0.1-0.7 0.5c-0.1 0.2-0.2 0.5-0.1 0.8z"/><path class="a" d="m38.7 41.5q-0.7 0.7-1.5 1.2-0.2 0.1-0.3 0.3-0.1 0.2-0.2 0.4 0 0.2 0 0.4 0.1 0.2 0.2 0.4 0.1 0.1 0.3 0.2 0.1 0.2 0.3 0.2 0.2 0 0.4 0 0.2-0.1 0.4-0.2 0.9-0.6 1.8-1.3c0.2-0.2 0.3-0.4 0.3-0.7q0.1-0.4-0.2-0.7-0.3-0.4-0.7-0.4-0.4-0.1-0.8 0.2z"/><path class="a" d="m46.6 31.1q-0.4-0.1-0.8 0.1-0.3 0.2-0.5 0.6-0.3 0.9-0.7 1.9-0.1 0.2-0.1 0.4 0 0.2 0.1 0.4 0.1 0.2 0.2 0.3 0.2 0.2 0.4 0.2 0.2 0.1 0.4 0.1 0.2 0 0.4 0 0.2-0.1 0.3-0.3 0.2-0.1 0.2-0.3 0.5-1 0.8-2.1 0.1-0.2 0.1-0.4-0.1-0.2-0.2-0.4-0.1-0.1-0.2-0.3-0.2-0.1-0.4-0.2z"/><path class="a" d="m33.7 44.6q-0.9 0.4-1.9 0.7-0.2 0.1-0.3 0.2-0.2 0.1-0.3 0.3-0.1 0.2-0.1 0.4 0 0.2 0 0.4 0.1 0.2 0.2 0.4 0.2 0.1 0.4 0.2 0.1 0.1 0.4 0.1 0.2 0 0.4 0 1-0.4 2-0.8 0.4-0.2 0.6-0.6 0.1-0.4-0.1-0.8c-0.1-0.2-0.3-0.4-0.5-0.5-0.3-0.1-0.6-0.1-0.8 0z"/><path class="a" d="m16.7 23.3c0-1.7-1.2-3.1-2.9-3.5-0.9-0.2-1.9-0.1-2.8 0.3-0.9 0.4-1.6 1.1-2.1 2q-0.2 0.4 0 0.8 0.1 0.4 0.5 0.6 0.4 0.2 0.8 0.1 0.4-0.2 0.6-0.5c0.2-0.5 0.6-0.9 1-1.1 0.5-0.2 1-0.3 1.5-0.1 0.3 0 1.3 0.3 1.3 1.4 0 1.1-1.3 1.9-2.6 2.8-1.5 1-3.2 2.2-3.2 4q0 0.5 0.3 0.8 0.3 0.3 0.8 0.3h5.7q0.2 0 0.4-0.1 0.2-0.1 0.4-0.2 0.1-0.2 0.2-0.4 0.1-0.2 0.1-0.4 0-0.2-0.1-0.4-0.1-0.2-0.2-0.3-0.2-0.2-0.4-0.2-0.2-0.1-0.4-0.1h-4.1c0.4-0.4 1.1-0.8 1.7-1.2 1.6-1.1 3.5-2.4 3.5-4.6z"/><path class="a" d="m26.5 26.7q0-0.4-0.3-0.7c-0.2-0.2-0.4-0.3-0.7-0.3h-0.9v-5.5q0-0.4-0.2-0.6-0.2-0.3-0.5-0.4-0.3-0.1-0.6 0-0.3 0.1-0.5 0.3l-5.3 6.6q-0.2 0.2-0.2 0.5 0 0.3 0.1 0.6 0.1 0.3 0.4 0.4 0.2 0.2 0.5 0.2h4.3v2.9q-0.1 0.2 0 0.4 0.1 0.2 0.3 0.4 0.1 0.1 0.3 0.2 0.2 0.1 0.4 0.1 0.2 0 0.4-0.1 0.2-0.1 0.3-0.2 0.2-0.2 0.3-0.4 0-0.2 0-0.4v-2.9h0.9q0.4 0 0.7-0.3c0.2-0.2 0.3-0.5 0.3-0.8zm-3.9-1h-2.1l2.1-2.6z"/><path class="a" d="m31.9 18.6q-0.2-0.1-0.5 0-0.2 0-0.3 0.1-0.2 0.1-0.3 0.3-0.1 0.2-0.2 0.4l-2.3 11.7c-0.1 0.3 0 0.5 0.1 0.8q0.3 0.3 0.7 0.4 0.1 0 0.2 0 0.4 0 0.7-0.2 0.3-0.2 0.3-0.6l2.4-11.7q0-0.2 0-0.4-0.1-0.2-0.2-0.4-0.1-0.2-0.3-0.3-0.1-0.1-0.3-0.1z"/><path class="a" d="m37.2 31.2q0.3 0 0.6-0.2 0.2-0.2 0.4-0.5l3.9-9.3q0.1-0.3 0-0.5 0-0.3-0.1-0.5-0.2-0.2-0.4-0.4-0.2-0.1-0.5-0.1h-5.3q-0.4 0-0.7 0.3-0.3 0.3-0.3 0.8 0 0.4 0.3 0.7 0.3 0.3 0.7 0.3h3.7l-3.3 7.9q-0.1 0.3 0 0.5 0 0.3 0.1 0.5 0.2 0.2 0.4 0.3 0.2 0.2 0.5 0.2z"/></svg>