<svg version="1.2" xmlns="http://www.w3.org/2000/svg" viewBox="0 0 101 101" width="101" height="101"><defs><clipPath clipPathUnits="userSpaceOnUse" id="cp1"><path d="m65.99 35.74h-30v30h30z"/></clipPath></defs><style>.a{fill:#b4924a}.b{fill:#bf5ec6}</style><path class="a" d="m52 8.4l0.6-7.7 1.5 0.1-0.6 7.7zm0.7 0l0.1-1.4 4.3 0.4-0.1 1.4z"/><path class="a" d="m58.5 9l1.8-7.4 1.5 0.3-1.8 7.4zm0.7 0.2l0.3-1.3 4.3 1-0.3 1.4zm0.8-3.1l0.3-1.4 4 1-0.4 1.3zm0.8-2.9l0.3-1.4 4.3 1-0.3 1.4z"/><path class="a" d="m69.9 12.8l0.5-7.9v-0.2l1.3 0.6-0.4 8v0.1zm-5.2-2.3v-0.1l5.7-5.7 1.4 0.6-0.2 0.2-5.6 5.6zm2-1l0.9-1.1 3.6 1.6-0.3 1.4z"/><path class="a" d="m72.6 14.2l4.3-6.3 1.2 0.8-4.4 6.3zm2.3-2l0.7-1.1 2 1.4q0.5 0.3 0.9 0.2 0.4 0 0.7-0.4l1.2 0.8q-0.6 0.9-1.6 1.1-0.9 0.1-1.8-0.6zm4.2 0.1q0.3-0.4 0.2-0.8-0.1-0.4-0.5-0.7l-2-1.4 0.7-1.1 2.1 1.5q1 0.6 1.2 1.5 0.2 0.9-0.4 1.8zm-3.1 4.3l0.5-3.7 1.4 0.6-0.6 3.9v0.1z"/><path class="a" d="m82.2 22.1l1.7-8.6 0.2-0.3 1.1 1.1-1.6 8.6-0.3 0.3zm-3.5-3.6l5.4-5.3 1 1-5.4 5.4zm3.5 3.5l5.4-5.3 1.1 1-5.4 5.4z"/><path class="a" d="m88.3 30.7l0.2-0.1 8-0.6 0.7 1.3-0.2 0.1-8.1 0.6zm-1.5-3.1l6.8-3.5 0.6 1.3-6.8 3.5zm1.6 3.1l5.2-6.2 0.2-0.1 0.6 1.3-5.1 6.2-0.2 0.1zm1.5 3l6.8-3.5 0.7 1.3-6.8 3.5z"/><path class="a" d="m91.8 40.4q-0.2-1 0-2 0.3-0.9 1.1-1.6 0.8-0.7 1.9-0.9 1.2-0.3 2.2-0.1 1 0.2 1.6 0.9 0.7 0.7 1 1.8 0.3 1.1 0 2-0.3 0.9-1.1 1.6-0.7 0.7-1.9 1-1.2 0.2-2.1 0-1-0.2-1.7-0.9-0.7-0.7-1-1.8zm1.4-0.3q0.2 0.6 0.6 1 0.4 0.5 1 0.6 0.7 0.1 1.5-0.1 0.7-0.2 1.2-0.6 0.5-0.4 0.7-1 0.2-0.5 0-1.2-0.1-0.6-0.6-1-0.4-0.4-1-0.6-0.6-0.1-1.4 0.1-0.8 0.2-1.3 0.6-0.5 0.4-0.7 1-0.2 0.5 0 1.2z"/><path class="a" d="m93.1 45.7l7.6-0.4 0.1 1.5-7.7 0.3zm3 0.6l1.3-0.1 0.1 2.4q0.1 0.6 0.3 0.9 0.3 0.3 0.8 0.2l0.1 1.5q-1.1 0.1-1.8-0.6-0.6-0.6-0.7-1.8zm2.6 3.5q0.5-0.1 0.7-0.4 0.3-0.3 0.2-0.9l-0.1-2.3 1.3-0.1 0.2 2.5q0 1.2-0.6 1.9-0.6 0.7-1.7 0.7zm-5.2 0.2l3.2-1.8 0.4 1.4-3.5 2h-0.1z"/><path class="a" d="m93.3 53.3l7.6 0.9-0.2 1.4-7.6-0.9zm-0.1 0.8l1.4 0.1-0.5 4.4-1.4-0.1zm3.1 0.3l1.4 0.2-0.5 4.1-1.4-0.2zm3.1 0.4l1.4 0.1-0.6 4.4-1.3-0.1z"/><path class="a" d="m93.7 67.9l1.9-1.2 0.5 0.7-1.6 1.5zm2.2-1.3l2.2 0.6-0.5 1.1-2-0.9zm-2-1l2 1-0.3 0.7-2.1-0.6zm1.6 1l1.6-1.5 0.7 0.9-1.8 1.3zm-0.1 0.4l0.8-0.2 0.5 2.2-1.2 0.2zm-0.5-2.2l1.2-0.2 0.1 2.3-0.8 0.1z"/><path class="a" d="m86.9 73.1l6.3 4.4-0.9 1.2-6.2-4.4zm-0.5 0.6l1.2 0.8-2.5 3.5-1.1-0.8z"/><path class="a" d="m83 78.4l5.5 5.3-1 1.1-5.5-5.4zm-0.5 0.6l1 0.9-3.1 3.2-1-1zm2.3 2.3l1 0.9-2.9 3-1-1zm2.2 2.1l1 1-3.1 3.2-1-1z"/><path class="a" d="m74 86.2l6.5 4.4 0.2 0.2-1.2 0.8-6.7-4.4-0.1-0.1zm4.7-3.3l2.1 7.9-1.2 0.8-0.1-0.2-2-7.6zm-0.2 2.2l0.6 1.3-3.2 2.3-1.1-1z"/><path class="a" d="m71.4 87.8l3.2 6.9-1.2 0.6-3.3-6.9zm0.6 2.9l0.5 1.2-2.1 1q-0.5 0.3-0.7 0.7-0.1 0.3 0.1 0.8l-1.4 0.6q-0.4-1-0.1-1.8 0.3-0.9 1.4-1.4zm-2.2 3.7q0.2 0.4 0.6 0.5 0.4 0.2 0.9-0.1l2.2-1 0.5 1.2-2.3 1.1q-1 0.5-1.9 0.2-0.9-0.3-1.3-1.3zm-2.2-4.8l2.9 2.3-1.1 0.9-3.2-2.5v-0.1z"/><path class="a" d="m59.7 92.1l6.6 5.8 0.1 0.4-1.5 0.3-6.6-5.8-0.1-0.4zm4.9-1.2l1.8 7.4-1.4 0.4-1.9-7.4zm-4.8 1.2l1.8 7.4-1.4 0.4-1.8-7.4z"/><path class="a" d="m49.1 92.9v0.2l-3.6 7.2-1.4-0.1v-0.2l3.6-7.2zm3.4 0.2l-0.4 7.6h-1.5l0.5-7.7zm-3.5-0.2l2.7 7.6v0.2h-1.4l-2.7-7.6v-0.3zm-3.4-0.2l-0.5 7.7-1.4-0.1 0.4-7.7z"/><path class="a" d="m39 91q1 0.3 1.7 1 0.7 0.8 0.8 1.8 0.2 1-0.1 2.1-0.4 1.2-1.1 1.9-0.7 0.7-1.6 0.9-1 0.3-2 0-1.1-0.3-1.7-1.1-0.7-0.7-0.9-1.7-0.2-1 0.2-2.1 0.3-1.2 1-1.9 0.7-0.7 1.7-1 0.9-0.2 2 0.1zm-0.4 1.4q-0.6-0.2-1.2-0.1-0.6 0.2-1 0.7-0.5 0.4-0.7 1.2-0.2 0.8-0.1 1.4 0.1 0.6 0.5 1.1 0.4 0.4 1 0.6 0.6 0.2 1.2 0.1 0.6-0.2 1-0.7 0.4-0.4 0.7-1.2 0.2-0.8 0.1-1.4-0.1-0.7-0.5-1.1-0.4-0.5-1-0.6z"/><path class="a" d="m33.8 89.4l-3.6 6.7-1.2-0.6 3.5-6.8zm-2 2.2l-0.6 1.2-2.1-1.1q-0.5-0.3-0.9-0.2-0.4 0.2-0.6 0.6l-1.3-0.7q0.5-1 1.4-1.2 0.9-0.3 1.9 0.3zm-4.3 0.4q-0.2 0.4 0 0.8 0.1 0.4 0.6 0.7l2.1 1.1-0.6 1.2-2.2-1.2q-1.1-0.6-1.4-1.4-0.3-0.9 0.2-1.9zm2.6-4.6l-0.1 3.7-1.4-0.3 0.1-4.1z"/><path class="a" d="m27.3 85.7l-4.7 6.1-1.2-0.9 4.7-6.1zm-0.6-0.4l-0.9 1.1-3.5-2.7 0.9-1.1zm-1.9 2.5l-0.9 1.1-3.2-2.5 0.8-1.1zm-1.9 2.4l-0.8 1.1-3.5-2.7 0.8-1.1z"/><path class="a" d="m14.4 78.6l0.1 2.3-0.8 0.1-0.5-2.2zm0 2.6l-1.6 1.5-0.8-0.9 1.9-1.2zm1.8-1.3l-1.8 1.3-0.5-0.7 1.6-1.5zm-1.7 0.8l0.5 2.2-1.2 0.2-0.1-2.2zm-0.3-0.4l-0.3 0.8-2.1-0.6 0.4-1.2zm2.2 0.7l-0.5 1.1-2-1 0.3-0.8z"/><path class="a" d="m13.4 70.2l-6.9 3.1-0.6-1.3 6.9-3.2zm-0.3-0.7l-1.3 0.6-1.7-3.9 1.2-0.6z"/><path class="a" d="m10.8 64.1l-7.3 2-0.4-1.4 7.4-2zm-0.2-0.7l-1.4 0.3-1.1-4.2 1.3-0.4zm-3 0.8l-1.4 0.4-1.1-4 1.4-0.3zm-3 0.8l-1.3 0.3-1.2-4.2 1.4-0.4z"/><path class="a" d="m8.7 52.4l-7.1 3.4h-0.2l-0.2-1.4 7.3-3.6h0.1zm0.5 5.7h-0.1l-7.8-2.2-0.1-1.5 0.2 0.1 7.7 2.1zm-1.9-1.2l-1.4-0.2-0.3-4 1.3-0.4z"/><path class="a" d="m8.7 49.2l-7.6-0.7 0.1-1.4 7.6 0.7zm-2.8-1l-1.3-0.1 0.2-2.4q0.1-0.5-0.2-0.9-0.2-0.3-0.7-0.3l0.1-1.5q1.1 0.1 1.7 0.8 0.6 0.8 0.4 1.9zm-2-3.7q-0.5-0.1-0.8 0.2-0.3 0.3-0.3 0.8l-0.3 2.4-1.3-0.1 0.3-2.5q0.1-1.2 0.8-1.8 0.7-0.6 1.8-0.5zm5.2 0.6l-3.5 1.4-0.2-1.5 3.8-1.5h0.1z"/><path class="a" d="m11 37l-8.4 2.7-0.4-0.1 0.4-1.4 8.4-2.8 0.4 0.2zm-1.4 4.8l-7.4-2.2 0.5-1.4 7.3 2.1zm1.4-4.7l-7.3-2.2 0.4-1.5 7.3 2.2z"/><path class="a" d="m15.6 27.6l-0.2-0.2-4.3-6.8 0.8-1.1 0.2 0.1 4.3 6.8zm-1.9 2.8l-6.3-4.3 0.8-1.2 6.3 4.3zm1.9-2.9l-7.9-1.5-0.2-0.1 0.8-1.2 8 1.5 0.1 0.2zm2-2.9l-6.4-4.2 0.9-1.3 6.3 4.3z"/><path class="a" d="m22.4 19.8q-0.8 0.7-1.7 0.9-1 0.2-2-0.1-0.9-0.3-1.7-1.2-0.8-0.9-1.1-1.9-0.3-1 0-1.9 0.3-0.9 1.1-1.7 0.8-0.7 1.7-0.9 1-0.2 1.9 0.1 1 0.4 1.8 1.2 0.8 0.9 1.1 1.9 0.3 1 0 1.9-0.3 0.9-1.1 1.7zm-0.9-1q0.4-0.5 0.6-1.1 0.2-0.5 0-1.2-0.2-0.6-0.8-1.2-0.5-0.6-1.1-0.8-0.6-0.2-1.2-0.1-0.6 0.1-1.1 0.5-0.5 0.5-0.6 1.1-0.2 0.5 0 1.2 0.2 0.6 0.8 1.2 0.5 0.6 1.1 0.8 0.6 0.2 1.2 0.1 0.6-0.1 1.1-0.5z"/><path class="a" d="m26.5 16.1l-4.1-6.5 1.3-0.7 4 6.5zm-0.9-2.8l-0.7-1.2 2-1.2q0.5-0.3 0.6-0.7 0.1-0.4-0.2-0.8l1.3-0.8q0.6 0.9 0.3 1.8-0.2 0.9-1.2 1.5zm1.8-3.9q-0.3-0.4-0.7-0.5-0.4 0-0.9 0.3l-2 1.2-0.7-1.1 2.2-1.3q1-0.6 1.9-0.4 0.9 0.1 1.4 1.1zm2.7 4.5l-3.2-1.9 1.1-1.1 3.4 2.1 0.1 0.1z"/><path class="a" d="m32.9 12.4l-2.8-7.1 1.3-0.6 2.9 7.1zm0.7-0.3l-0.5-1.3 4.1-1.6 0.5 1.3zm-1.2-2.9l-0.5-1.3 3.8-1.6 0.5 1.3zm-1.1-2.8l-0.6-1.3 4.1-1.7 0.6 1.3z"/><path class="a" d="m45.4 4.9l-1.9-1 0.3-0.7 2.1 0.6zm-2.3-1.3l-0.5-2.2 1.2-0.1 0.2 2.2zm0.1 2.2l-0.1-2.2 0.8-0.2 0.5 2.2zm0.1-1.9l-2.1-0.6 0.4-1.1 2 0.9zm0.4 0l-0.5-0.7 1.6-1.5 0.8 0.9zm-1.7 1.6l-0.7-1 1.8-1.2 0.6 0.6z"/><filter id="f0"><feFlood flood-color="#b4924a" flood-opacity="1" /><feBlend mode="normal" in2="SourceGraphic"/><feComposite in2="SourceAlpha" operator="in" /></filter><g clip-path="url(#cp1)" filter="url(#f0)"><filter id="f1"><feFlood flood-color="#b4924a" flood-opacity="1" /><feBlend mode="normal" in2="SourceGraphic"/><feComposite in2="SourceAlpha" operator="in" /></filter><g filter="url(#f1)"><path class="b" d="m65.5 63.2q0.1 0 0.2 0c0.2-0.1 0.3-0.3 0.3-0.5 0-0.2-1.4-16.4-19.3-17.8l0.1-6.1c0-0.2-0.1-0.4-0.3-0.5-0.2-0.1-0.4 0-0.5 0.1l-9.9 10.4c-0.2 0.2-0.2 0.5 0 0.7l9.9 10.5c0.2 0.1 0.4 0.2 0.5 0.1 0.2-0.1 0.3-0.2 0.3-0.4v-6c12 0.9 18.3 9.2 18.3 9.3q0.2 0.2 0.4 0.2zm-19.7-23.3v5.4c0 0.3 0.2 0.5 0.4 0.5 14.4 0.9 17.8 11.4 18.6 15.4-2.3-2.5-8.6-7.9-18.5-8.5q-0.2 0-0.3 0.2-0.2 0.1-0.2 0.3l0.1 5.3-8.8-9.3z"/></g></g></svg>